<?xml version="1.0" standalone="no"?>
<!DOCTYPE svg PUBLIC "-//W3C//DTD SVG 20010904//EN"
 "http://www.w3.org/TR/2001/REC-SVG-20010904/DTD/svg10.dtd">
<svg version="1.0" xmlns="http://www.w3.org/2000/svg"
 width="1900.000000pt" height="1900.000000pt" viewBox="0 0 1900.000000 1900.000000"
 preserveAspectRatio="xMidYMid meet">

<g transform="translate(0.000000,1900.000000) scale(0.100000,-0.100000)"
fill="#000000" stroke="none">
<path d="M6030 17383 c-52 -2 -585 -5 -1185 -7 -1263 -5 -1144 -3 -1159 -15
-6 -5 -29 -12 -51 -15 -22 -4 -61 -10 -87 -15 -27 -4 -48 -6 -48 -4 0 3 -7 -3
-16 -11 -8 -9 -28 -16 -42 -16 -15 0 -48 -11 -74 -25 -26 -14 -52 -25 -59 -25
-10 0 -25 -6 -109 -43 -14 -6 -33 -18 -44 -27 -10 -8 -20 -14 -22 -12 -2 1 -6
1 -9 1 -34 -9 -55 -21 -50 -29 2 -4 -13 -10 -35 -14 -24 -4 -39 -11 -37 -19 1
-6 -4 -11 -10 -9 -7 1 -13 -2 -13 -8 0 -5 -9 -10 -20 -10 -11 0 -20 -6 -20
-12 0 -9 -4 -8 -10 2 -7 11 -10 12 -10 2 0 -7 -7 -20 -15 -28 -8 -9 -15 -13
-15 -10 0 3 -8 -2 -18 -11 -10 -10 -29 -25 -41 -33 -13 -8 -32 -23 -43 -32
-12 -10 -25 -18 -30 -18 -5 0 -7 -4 -3 -9 3 -5 -4 -12 -15 -16 -11 -3 -25 -15
-30 -26 -6 -10 -17 -19 -25 -19 -7 0 -17 -9 -20 -20 -3 -11 -12 -20 -18 -20
-7 0 -42 -32 -77 -72 -36 -39 -73 -80 -82 -90 -10 -10 -18 -22 -18 -28 0 -5
-4 -10 -9 -10 -5 0 -11 -9 -14 -21 -3 -12 -10 -18 -15 -15 -6 3 -15 -8 -21
-24 -5 -17 -14 -30 -18 -30 -5 0 -14 -12 -21 -27 -17 -39 -45 -86 -58 -98 -6
-5 -18 -25 -25 -42 -8 -18 -17 -33 -21 -33 -5 0 -8 -7 -8 -16 0 -8 -7 -22 -15
-31 -9 -8 -19 -28 -22 -44 -3 -16 -9 -29 -14 -29 -5 0 -9 -11 -9 -24 0 -13 -5
-26 -10 -28 -6 -2 -13 -16 -16 -32 -3 -16 -9 -37 -15 -48 -5 -10 -7 -18 -3
-18 3 0 -1 -11 -10 -25 -10 -14 -20 -48 -23 -75 -3 -28 -9 -50 -13 -50 -8 0
-29 -110 -33 -172 -1 -25 -5 -44 -8 -42 -4 2 -10 -6 -15 -19 -4 -12 -9 -1019
-11 -2237 -1 -1218 -4 -2247 -5 -2287 -2 -39 0 -69 5 -66 4 2 7 -1 7 -6 0 -6
-5 -11 -11 -11 -5 0 -8 -4 -4 -9 3 -7 7 -3783 3 -3946 0 -27 13 -226 18 -267
3 -27 9 -48 14 -48 4 0 10 -30 13 -67 7 -84 14 -115 27 -123 6 -3 12 -26 13
-51 4 -48 9 -71 17 -79 13 -13 30 -64 30 -91 0 -18 4 -28 10 -24 6 3 10 -1 10
-10 0 -13 23 -62 105 -225 5 -11 15 -20 22 -20 7 0 13 -8 13 -18 0 -10 11 -33
25 -52 14 -19 25 -40 25 -47 0 -7 6 -13 13 -13 6 0 26 -23 42 -51 17 -28 56
-78 87 -111 32 -34 58 -64 58 -67 0 -5 38 -41 133 -124 11 -9 24 -17 29 -17 4
0 8 -6 9 -12 0 -12 34 -37 136 -102 18 -12 32 -27 33 -34 0 -6 3 -11 8 -10 12
3 62 -24 62 -34 0 -4 7 -8 15 -8 8 0 24 -9 35 -20 11 -11 32 -23 47 -26 15 -4
41 -15 58 -25 16 -10 39 -19 50 -21 11 -2 26 -9 33 -15 7 -7 21 -13 31 -13 9
0 21 -4 26 -8 6 -5 29 -15 53 -22 23 -7 42 -18 42 -24 0 -6 4 -5 9 3 6 9 11
10 15 2 4 -6 17 -11 30 -11 12 0 27 -5 32 -10 6 -6 19 -12 30 -14 10 -2 30 -7
44 -10 14 -3 38 -8 53 -10 16 -3 35 -10 43 -17 11 -9 14 -8 14 2 0 10 3 11 8
3 4 -7 39 -15 77 -19 80 -8 6628 -18 6662 -10 29 7 48 46 57 115 4 30 13 62
21 70 14 16 15 18 15 51 0 11 5 17 10 14 6 -4 10 5 10 19 0 14 5 26 10 26 6 0
10 7 10 15 0 8 5 15 10 15 6 0 10 6 10 13 0 12 18 38 63 90 9 11 17 24 17 28
0 4 9 11 20 14 11 3 20 13 20 21 0 8 3 14 8 14 4 0 23 15 43 33 20 17 64 52
98 76 34 24 61 48 61 52 0 5 13 9 28 9 16 0 38 9 50 21 13 11 38 23 57 26 19
3 35 9 35 13 0 8 40 18 110 27 25 3 50 9 55 14 13 10 92 22 160 24 28 1 228 3
445 4 217 1 401 5 409 10 11 7 14 66 13 332 -1 240 2 326 11 338 10 12 9 13
-1 7 -10 -6 -12 7 -10 66 2 40 8 76 13 80 6 5 5 8 -2 8 -10 0 -13 59 -13 260
0 201 3 260 13 260 8 0 9 3 1 8 -16 10 -16 964 0 974 8 6 8 8 -1 8 -7 0 -13 5
-13 11 0 5 3 8 8 6 4 -3 8 32 10 77 3 77 39 252 60 292 6 10 15 38 22 62 6 23
15 40 20 37 4 -3 11 13 15 35 4 22 11 40 15 40 5 0 23 26 41 58 18 31 36 59
39 62 4 3 19 26 34 53 15 26 32 47 37 47 5 0 9 7 9 15 0 8 7 15 15 15 9 0 18
8 22 18 6 15 89 102 99 102 2 0 14 10 27 23 44 41 73 62 100 74 15 7 27 17 27
22 0 6 16 13 35 17 20 3 34 9 31 12 -9 9 28 31 52 32 13 0 21 4 18 8 -3 5 20
17 50 27 30 10 54 22 54 27 0 4 8 8 18 8 10 0 22 3 26 7 4 4 19 9 34 10 15 2
42 11 61 20 34 15 62 20 153 25 27 2 48 5 48 8 0 3 15 5 33 5 17 -1 38 3 46 9
11 8 13 8 7 -1 -4 -7 -2 -13 3 -13 6 0 11 4 11 8 0 9 667 5 682 -4 4 -3 8 1 8
8 0 9 3 9 10 -2 9 -13 10 -13 10 0 0 12 2 13 9 1 19 -29 24 39 22 262 -2 178
0 232 11 244 11 14 11 16 -2 8 -13 -8 -13 -7 -1 8 7 9 10 17 5 17 -15 0 -16
1411 -1 1429 10 12 9 13 -3 6 -13 -8 -13 -7 -1 8 7 9 9 17 5 17 -13 0 -15
1422 -2 1438 6 6 7 12 2 12 -14 0 -18 684 -4 709 6 12 7 21 3 21 -13 0 -15
700 -2 716 7 8 7 14 2 14 -7 0 -11 203 -11 568 -2 612 -3 652 -14 652 -5 0 -8
12 -7 28 1 15 -6 61 -15 102 -10 41 -20 94 -23 117 -3 24 -12 48 -19 54 -8 6
-14 24 -14 40 0 27 -16 67 -31 79 -4 3 -10 20 -14 39 -4 19 -14 41 -22 49 -8
8 -17 27 -20 43 -3 16 -9 29 -13 29 -4 0 -15 20 -26 45 -10 25 -22 45 -26 45
-4 0 -8 9 -8 20 0 11 -4 20 -8 20 -5 0 -14 12 -21 28 -13 28 -77 128 -96 149
-5 6 -19 23 -30 37 -31 39 -116 136 -151 170 -51 51 -134 126 -139 126 -2 0
-23 18 -45 40 -22 22 -43 40 -46 40 -3 0 -20 11 -38 25 -18 14 -38 25 -44 25
-7 0 -12 5 -12 10 0 6 -10 15 -22 20 -13 5 -36 18 -53 29 -16 12 -37 21 -46
21 -9 0 -19 6 -22 14 -3 7 -18 16 -34 20 -15 4 -58 23 -96 42 -37 19 -75 37
-85 39 -9 2 -39 14 -67 26 -27 12 -63 24 -78 26 -16 2 -38 8 -50 15 -12 6 -42
15 -67 19 -25 4 -61 10 -80 14 -19 4 -39 8 -45 8 -5 1 -13 7 -17 12 -7 10
-782 13 -4618 18 -1031 1 -1918 1 -1970 0z m2157 -2028 c7 -8 23 -12 36 -9 37
8 164 7 177 -1 15 -9 253 -8 290 1 38 9 102 10 135 1 17 -4 59 -11 95 -14 36
-3 67 -10 68 -14 2 -5 8 -7 13 -3 5 3 9 1 9 -3 0 -5 8 -9 18 -10 52 -2 92 -8
92 -13 0 -3 13 -6 30 -6 16 -1 45 -8 62 -17 18 -8 58 -27 89 -41 31 -14 61
-26 67 -26 7 0 12 -6 12 -14 0 -7 12 -16 28 -19 15 -3 36 -19 47 -36 11 -17
25 -31 31 -31 5 0 20 -9 32 -20 12 -12 22 -19 22 -16 0 2 35 -31 79 -73 71
-70 105 -113 106 -133 0 -4 7 -13 16 -20 31 -24 87 -107 94 -138 4 -17 13 -34
20 -36 7 -3 16 -16 19 -29 3 -13 13 -31 22 -39 8 -9 17 -26 19 -38 3 -12 9
-24 14 -27 5 -4 13 -20 17 -36 4 -17 15 -44 25 -62 10 -18 20 -43 21 -56 2
-14 9 -31 16 -39 6 -8 15 -29 18 -46 4 -18 12 -32 18 -32 6 0 4 -5 -4 -10 -10
-6 -11 -10 -2 -10 7 0 12 -14 12 -35 0 -22 6 -38 15 -41 8 -4 15 -17 15 -30 0
-13 8 -32 19 -43 12 -12 20 -41 25 -92 4 -41 13 -77 19 -81 7 -4 13 -30 13
-59 1 -30 8 -59 17 -69 9 -10 18 -31 21 -47 18 -90 29 -140 33 -153 2 -8 4
-15 4 -15 0 0 6 -21 13 -46 8 -27 11 -52 6 -60 -6 -8 -4 -16 3 -21 9 -6 9 -8
-1 -8 -7 0 -11 -3 -9 -7 3 -5 7 -36 11 -70 4 -34 13 -74 21 -90 8 -15 11 -31
6 -36 -4 -4 -4 -27 1 -50 8 -40 15 -122 21 -264 2 -33 9 -68 16 -76 8 -11 12
-53 12 -134 0 -120 14 -217 30 -208 12 8 6 -88 -6 -97 -6 -5 -5 -8 3 -8 20 0
14 -37 -10 -63 -37 -37 -68 -77 -62 -77 3 0 2 -6 -3 -12 -4 -7 -8 -18 -9 -25
-1 -7 -14 -38 -28 -69 -14 -31 -26 -65 -26 -76 0 -11 -6 -26 -14 -33 -7 -7
-13 -26 -12 -42 1 -15 -5 -34 -11 -41 -7 -7 -14 -23 -15 -35 -3 -52 -15 -84
-33 -91 -8 -3 -15 -17 -15 -31 0 -14 -5 -25 -11 -25 -5 0 -7 -4 -4 -10 3 -5 2
-10 -4 -10 -5 0 -13 -21 -17 -46 -3 -25 -12 -48 -19 -51 -7 -2 -16 -16 -20
-31 -4 -15 -13 -34 -21 -43 -8 -9 -16 -30 -17 -48 -1 -17 -5 -31 -9 -31 -5 0
-8 -16 -8 -35 0 -19 4 -35 8 -35 5 0 9 -7 9 -15 0 -8 -3 -15 -6 -15 -3 0 -7
-27 -9 -61 -1 -33 -8 -72 -15 -87 -15 -33 -15 -285 0 -304 14 -19 16 -131 1
-122 -7 5 -8 3 -2 -7 4 -8 7 -24 5 -37 -1 -13 3 -29 9 -37 6 -8 14 -42 16 -77
3 -34 10 -66 16 -69 14 -9 12 -83 -2 -109 -5 -10 -10 -38 -10 -62 0 -44 -18
-98 -32 -98 -5 0 -8 -7 -8 -15 0 -25 -30 -76 -40 -70 -6 4 -10 1 -10 -4 0 -6
-19 -23 -42 -38 -24 -16 -44 -31 -46 -35 -2 -5 -10 -8 -18 -8 -8 0 -14 -5 -14
-11 0 -5 -4 -8 -9 -5 -5 3 -11 0 -14 -8 -3 -7 -26 -16 -52 -18 -25 -3 -55 -14
-66 -24 -17 -15 -41 -19 -130 -22 -77 -3 -112 -8 -120 -18 -6 -8 -20 -14 -31
-14 -34 0 -208 -60 -208 -72 0 -4 -11 -20 -25 -35 -43 -49 -46 -53 -57 -83 -5
-17 -14 -30 -19 -30 -5 0 -9 -10 -9 -23 0 -26 -88 -187 -101 -187 -5 0 -9 -6
-9 -14 0 -8 -11 -17 -25 -20 -14 -4 -25 -13 -25 -21 0 -8 -3 -14 -7 -13 -13 3
-63 -24 -63 -34 0 -5 -19 -27 -42 -48 -23 -22 -37 -40 -32 -40 5 0 3 -4 -4 -9
-7 -4 -14 -14 -15 -22 -2 -8 -5 -18 -8 -24 -7 -13 -4 -87 6 -143 5 -29 4 -51
-5 -66 -6 -13 -13 -41 -13 -62 -1 -27 -9 -45 -24 -57 -36 -29 -58 -22 -79 28
-10 25 -22 45 -26 45 -4 0 -8 4 -8 9 0 23 -58 71 -89 75 -39 4 -71 -3 -71 -16
0 -5 -11 -20 -25 -34 -23 -23 -25 -32 -25 -115 0 -67 -4 -94 -15 -105 -19 -19
-19 -39 0 -58 19 -19 21 -116 2 -116 -7 0 -18 -9 -25 -20 -13 -21 -62 -28 -62
-9 0 5 -4 8 -9 4 -16 -9 -36 37 -36 85 -1 49 -26 90 -58 90 -48 0 -105 -76
-125 -167 -5 -22 -21 -54 -36 -69 -14 -16 -26 -31 -26 -34 0 -17 -47 -5 -67
16 -13 14 -23 21 -24 17 -2 -21 -18 36 -18 65 -1 47 -33 71 -94 72 -47 0 -51
-2 -118 -70 -59 -59 -75 -70 -103 -70 -21 0 -36 6 -40 15 -3 8 -6 99 -6 201
-2 171 -10 234 -30 234 -4 0 -17 9 -30 20 -28 25 -51 25 -77 3 -40 -35 -47
-77 -29 -158 2 -11 5 -24 5 -30 1 -5 6 -3 11 5 7 11 10 7 10 -17 0 -18 -4 -33
-9 -33 -5 0 -13 -14 -16 -32 -8 -34 -57 -108 -81 -121 -8 -4 -19 -5 -24 -2 -6
3 -10 2 -10 -3 0 -16 -59 0 -65 18 -3 10 -12 21 -20 24 -8 3 -17 21 -21 41 -4
22 -10 32 -14 25 -4 -7 -9 13 -12 43 -4 51 -23 87 -46 87 -21 0 -62 -47 -62
-72 0 -39 -19 -44 -46 -15 -19 21 -25 40 -29 99 -6 105 -9 118 -21 126 -6 4
-13 26 -16 48 -6 41 -29 75 -61 87 -9 3 -17 14 -17 23 0 10 -3 15 -6 11 -3 -3
-15 3 -27 14 -11 10 -33 19 -49 19 -15 0 -37 9 -48 20 -12 12 -20 15 -20 8 0
-10 -2 -10 -9 0 -4 8 -11 13 -15 12 -17 -6 -105 12 -108 22 -6 16 -109 18
-135 2 -12 -7 -40 -16 -62 -20 -23 -4 -41 -11 -41 -17 0 -5 -8 -3 -17 4 -11
10 -14 10 -9 2 4 -7 2 -13 -3 -13 -6 0 -11 6 -11 13 0 8 -3 8 -9 -2 -12 -19
-71 -24 -71 -6 0 11 -37 32 -47 27 -9 -5 -104 105 -106 122 -1 12 -5 23 -9 26
-3 3 -8 14 -10 25 -1 11 -7 23 -13 27 -6 5 -6 8 1 8 10 0 12 59 3 95 -1 6 1
19 5 30 4 11 12 31 17 45 13 37 5 356 -9 373 -7 8 -9 17 -5 20 3 4 1 7 -5 7
-7 0 -11 10 -11 23 0 22 -3 39 -14 67 -8 21 -17 89 -17 124 0 16 -6 47 -15 70
-16 44 -23 76 -24 116 -1 19 -3 22 -10 11 -7 -11 -11 -5 -16 22 -4 20 -11 37
-15 37 -9 0 -30 46 -30 67 0 9 -7 24 -15 33 -9 10 -18 34 -20 55 -3 21 -14 52
-24 69 -11 17 -19 35 -19 39 1 11 -65 140 -75 148 -5 3 -8 8 -6 10 7 11 -25
108 -37 113 -8 3 -14 17 -14 31 0 14 -4 25 -10 25 -5 0 -10 8 -10 17 0 24 -23
86 -37 101 -7 7 -13 20 -13 28 0 8 -4 14 -8 14 -9 0 -34 84 -36 120 -1 14 -11
34 -22 45 -12 11 -20 29 -18 40 2 11 1 27 -3 35 -3 8 -7 17 -8 20 -11 45 -17
60 -24 60 -5 0 -12 27 -16 60 -4 33 -13 67 -21 75 -8 7 -14 27 -14 44 0 16 -7
37 -16 45 -8 9 -12 16 -7 16 4 0 9 11 9 25 1 14 -2 25 -7 25 -5 0 -8 3 -8 8 1
4 0 12 -1 17 -1 6 -1 31 0 56 1 26 -3 50 -9 54 -6 3 -11 15 -11 26 0 10 -4 19
-10 19 -5 0 -10 6 -10 14 0 8 -6 21 -12 28 -18 19 -20 32 -23 120 -2 42 -6 82
-10 88 -4 6 -7 63 -6 125 0 63 -4 117 -9 120 -18 11 -11 102 10 140 11 20 22
49 24 66 1 16 6 32 9 36 4 3 7 23 7 44 0 21 6 44 13 51 6 7 12 27 12 43 0 46
15 108 29 125 7 8 16 46 19 84 4 45 13 76 24 88 14 15 19 41 22 104 1 46 6 82
10 79 15 -9 75 128 79 182 2 29 8 53 11 53 4 0 13 16 20 35 7 19 17 35 22 35
10 0 35 59 31 73 -1 4 5 7 13 7 8 0 15 6 15 13 0 7 11 28 25 47 14 19 25 42
25 53 0 10 4 16 9 13 9 -6 26 22 23 37 -1 4 6 7 16 7 20 0 54 28 78 65 9 14
22 25 29 25 7 0 16 7 19 16 3 8 10 12 16 9 5 -3 10 0 10 7 0 7 21 28 45 47 25
18 45 37 45 42 0 5 7 9 15 9 8 0 15 7 15 15 0 8 5 15 12 15 20 0 88 52 88 66
0 8 5 14 10 14 9 0 59 49 135 132 17 18 41 41 55 50 14 9 40 30 59 47 19 16
38 28 43 25 4 -3 13 4 20 16 7 11 17 20 23 20 6 0 17 9 25 20 8 11 20 20 27
20 7 0 13 5 13 10 0 6 6 10 13 10 7 0 40 25 72 56 33 30 82 68 110 82 27 15
54 33 58 40 4 6 15 12 22 12 8 0 15 5 15 10 0 6 7 10 15 10 8 0 15 5 15 10 0
6 8 10 18 10 10 0 27 8 38 18 10 9 30 19 44 21 13 1 35 12 48 22 14 10 42 24
63 29 21 6 44 17 52 25 8 7 31 17 51 20 20 4 36 11 36 15 0 12 61 28 123 32
22 1 37 7 37 15 0 11 35 19 64 14 4 -1 16 8 26 19 12 14 32 22 62 23 33 2 47
8 60 27 10 14 22 25 28 25 5 0 19 8 30 18 16 14 39 17 120 17 95 0 131 8 153
35 6 6 10 6 14 -2 2 -7 18 -13 34 -13 16 0 29 5 29 13 0 9 3 8 9 -2 5 -7 11
-9 14 -4 3 5 27 10 54 12 26 1 50 4 53 7 9 10 93 -7 107 -21z m1156 -5769 c7
-18 -3 -56 -14 -56 -5 0 -8 -10 -8 -22 1 -13 -3 -44 -10 -70 -6 -26 -8 -66 -5
-90 4 -27 1 -57 -8 -78 -10 -26 -13 -84 -11 -230 1 -107 3 -204 5 -215 1 -11
-4 -40 -11 -65 -15 -49 -17 -142 -5 -162 5 -7 10 -67 11 -133 1 -66 5 -147 9
-180 6 -56 4 -65 -25 -110 -17 -27 -31 -54 -31 -60 0 -6 -9 -17 -20 -25 -11
-8 -20 -25 -20 -38 0 -12 -7 -25 -15 -28 -8 -4 -15 -12 -15 -20 0 -8 -4 -14
-10 -14 -5 0 -10 -7 -10 -16 0 -8 -4 -13 -9 -9 -5 3 -13 -5 -17 -17 -4 -13
-15 -29 -25 -36 -11 -7 -19 -20 -19 -28 0 -8 -5 -12 -11 -9 -6 4 -13 -2 -16
-13 -3 -12 -14 -22 -24 -24 -11 -2 -20 -7 -21 -13 -1 -5 -15 -21 -32 -35 -16
-14 -56 -51 -89 -82 -32 -32 -63 -58 -69 -58 -5 0 -26 -18 -45 -40 -20 -22
-40 -37 -44 -34 -5 3 -9 0 -9 -6 0 -14 -25 -40 -39 -40 -6 0 -11 -4 -11 -10 0
-5 -6 -10 -13 -10 -15 0 -77 -72 -77 -89 0 -6 -6 -11 -13 -11 -8 0 -24 -9 -37
-20 -13 -11 -27 -20 -32 -20 -4 0 -8 -7 -8 -16 0 -8 -4 -13 -9 -10 -5 4 -11 1
-13 -4 -2 -6 -13 -12 -26 -13 -12 0 -22 -6 -22 -12 0 -7 -11 -18 -25 -25 -14
-7 -25 -17 -25 -22 0 -4 -6 -8 -14 -8 -8 0 -33 -20 -57 -45 -24 -25 -48 -45
-54 -45 -15 0 -108 -49 -116 -61 -3 -5 -23 -11 -45 -13 -44 -5 -106 -20 -122
-30 -6 -3 -13 -2 -17 4 -4 6 -10 8 -15 5 -5 -3 -11 -1 -15 5 -3 5 -15 10 -25
10 -10 0 -24 8 -29 18 -6 9 -11 13 -11 9 0 -5 -6 -5 -12 0 -7 4 -24 9 -38 11
-14 2 -32 9 -40 16 -8 8 -26 17 -40 21 -13 4 -30 13 -37 20 -7 7 -31 16 -53
20 -22 4 -40 11 -40 16 0 12 -31 27 -71 34 -18 3 -39 10 -45 16 -13 11 -40 18
-99 25 -22 3 -50 12 -63 20 -12 8 -38 15 -57 16 -19 1 -35 5 -35 10 0 5 -4 6
-10 3 -5 -3 -10 2 -10 12 0 15 -2 16 -10 3 -6 -10 -10 -11 -10 -3 0 7 -12 16
-27 19 -16 4 -31 12 -35 18 -5 8 -8 7 -8 -2 0 -10 -5 -9 -22 2 -13 7 -44 17
-70 20 -26 4 -49 13 -52 21 -3 8 -14 15 -24 15 -10 0 -25 11 -32 25 -7 13 -17
22 -21 19 -4 -2 -10 0 -14 6 -3 5 -15 10 -26 10 -10 0 -19 5 -19 10 0 6 -4 10
-10 10 -13 0 -89 78 -82 85 3 3 0 5 -6 5 -7 0 -20 16 -29 35 -9 19 -20 35 -25
35 -4 0 -8 5 -8 12 0 7 -9 21 -20 33 -37 37 -70 80 -70 92 0 6 -5 13 -11 15
-11 4 -15 45 -11 113 2 23 4 27 12 15 8 -12 10 -10 11 10 2 52 11 85 27 100
14 14 17 38 17 162 0 92 -4 150 -11 159 -6 8 -15 41 -18 74 -4 33 -10 78 -12
100 -3 21 -10 43 -17 47 -15 9 -14 155 2 171 6 6 11 33 11 59 0 44 2 48 23 48
25 0 67 -30 67 -48 0 -6 5 -12 10 -14 6 -2 13 -55 16 -118 5 -118 20 -200 35
-200 5 0 9 -10 9 -23 0 -13 5 -28 12 -35 8 -8 8 -15 1 -24 -9 -11 -11 -58 -3
-65 1 -2 3 -7 4 -12 0 -5 4 -13 9 -17 4 -4 7 -22 7 -41 0 -19 11 -55 25 -82
13 -27 21 -51 18 -55 -4 -3 -1 -6 5 -6 7 0 12 -13 12 -29 0 -17 11 -43 27 -63
58 -69 78 -73 131 -24 25 25 39 31 44 23 6 -9 8 -9 8 0 0 7 11 1 25 -12 20
-17 38 -23 73 -23 43 -1 52 3 85 38 33 33 37 42 32 71 -4 19 -8 54 -11 78 -2
24 -7 47 -9 51 -9 14 24 38 44 33 11 -3 23 -14 27 -25 3 -11 8 -17 11 -14 10
9 32 -27 33 -52 0 -13 4 -21 9 -18 5 4 13 -8 16 -26 8 -37 20 -48 53 -48 12 0
22 -6 23 -12 0 -10 2 -10 6 0 2 6 9 10 13 7 12 -7 54 34 77 75 11 19 32 42 46
50 26 14 28 14 52 -15 13 -16 24 -42 25 -57 0 -19 13 -42 40 -69 22 -23 40
-37 40 -33 0 5 19 10 43 12 69 5 79 7 103 31 20 19 23 31 21 80 -1 45 2 61 18
77 30 31 51 35 71 13 9 -10 23 -19 31 -19 7 0 13 -4 13 -10 0 -5 6 -10 13 -10
8 0 19 -12 25 -26 7 -14 17 -22 23 -19 6 4 10 1 9 -6 -4 -26 12 -59 29 -60 57
-4 92 2 110 20 31 31 41 56 41 105 0 24 4 46 8 48 4 2 24 28 43 59 l35 57 49
-3 c28 -1 69 -6 92 -10 36 -6 45 -4 66 17 13 13 27 42 31 64 10 50 22 64 57
64 34 0 42 -12 44 -62 2 -39 41 -136 60 -150 23 -17 48 -5 106 54 l60 63 -5
110 c-5 131 -4 123 -15 106 -6 -10 -11 -1 -16 27 -9 58 1 97 30 110 14 7 25
15 25 20 0 4 18 6 41 4 35 -4 41 -1 46 18 4 14 8 17 13 10 4 -7 12 0 20 19 7
17 16 31 20 31 6 0 14 53 23 153 1 9 7 17 13 17 12 0 21 51 26 140 1 25 8 57
16 72 7 15 14 39 15 53 1 14 8 29 15 34 8 5 13 10 12 12 -1 2 5 22 14 44 9 21
14 51 11 65 -4 18 0 29 15 40 11 8 20 22 20 31 0 8 3 19 7 22 11 12 41 7 46
-7z"/>
<path d="M9317 12478 c-7 -4 -54 -6 -103 -6 -49 1 -111 -3 -139 -10 -27 -6
-63 -14 -79 -17 -16 -2 -34 -9 -40 -15 -5 -5 -22 -10 -36 -10 -29 0 -80 -21
-80 -32 0 -5 -6 -8 -12 -8 -7 0 -24 -12 -37 -25 -13 -14 -27 -25 -32 -25 -10
0 -13 -2 -73 -55 -21 -19 -42 -35 -47 -35 -4 0 -11 -9 -14 -20 -4 -11 -10 -18
-15 -15 -5 3 -15 -3 -22 -15 -7 -11 -18 -20 -24 -20 -6 0 -20 -11 -32 -25 -12
-14 -28 -25 -35 -25 -6 0 -18 -9 -25 -20 -7 -11 -19 -20 -27 -20 -8 0 -15 -4
-15 -9 0 -16 -65 -77 -98 -92 -18 -7 -35 -23 -39 -34 -3 -11 -15 -33 -27 -50
-21 -31 -28 -49 -29 -75 0 -8 -3 -17 -6 -20 -17 -14 -27 -59 -20 -95 4 -22 8
-59 8 -82 1 -23 6 -45 11 -48 6 -3 10 -22 10 -41 0 -19 3 -34 8 -34 4 0 8 -16
10 -36 1 -21 10 -44 21 -54 11 -9 23 -29 27 -44 3 -15 9 -25 11 -22 3 3 16 -6
30 -20 22 -22 30 -26 49 -23 4 0 10 -5 15 -13 5 -7 12 -13 16 -14 41 -4 117
-48 152 -86 8 -10 21 -18 28 -18 6 0 15 -9 18 -20 3 -11 15 -20 26 -20 10 0
28 -9 38 -19 11 -11 30 -25 43 -32 26 -15 222 -24 213 -10 -6 11 31 18 95 20
61 2 80 6 88 18 4 6 22 13 40 16 19 3 39 13 45 21 7 9 26 19 42 22 17 3 32 10
33 15 2 5 18 15 36 23 17 7 47 27 66 45 19 17 39 31 45 31 9 0 47 29 98 74 9
9 21 16 26 16 5 0 26 16 47 35 20 19 34 35 31 35 -3 0 5 11 19 25 14 14 29 25
34 25 6 0 10 6 10 13 0 7 8 22 18 33 10 10 22 28 26 39 6 16 17 132 16 180 -2
129 -11 306 -16 325 -4 14 -6 64 -5 111 3 105 -11 156 -55 203 -19 20 -33 39
-31 43 3 9 -30 15 -98 16 -33 1 -63 6 -67 12 -5 6 -8 6 -8 -2 0 -8 -14 -6 -44
8 -44 19 -93 22 -119 7z"/>
<path d="M7082 11788 c-7 -7 -12 -9 -12 -5 0 3 -18 0 -39 -8 -22 -7 -41 -12
-43 -10 -8 8 -89 11 -94 4 -2 -4 -25 -11 -50 -15 -25 -3 -51 -12 -58 -20 -8
-7 -35 -14 -62 -15 -54 -1 -144 -26 -144 -39 0 -4 -16 -11 -35 -14 -19 -4 -41
-14 -50 -22 -8 -9 -15 -11 -15 -5 0 8 -6 8 -17 2 -18 -10 -129 -27 -147 -22
-5 1 -15 -7 -23 -19 -8 -11 -22 -20 -32 -20 -20 0 -51 -22 -100 -72 -86 -87
-81 -71 -81 -258 0 -104 4 -171 10 -175 6 -4 8 -10 5 -15 -3 -4 1 -10 9 -13 7
-3 17 -18 21 -34 3 -15 11 -31 17 -34 5 -4 11 -18 11 -33 1 -14 5 -26 10 -26
4 0 7 -14 7 -32 0 -17 7 -39 16 -49 8 -9 16 -26 17 -37 0 -11 5 -18 9 -16 4 3
8 -42 8 -100 0 -64 4 -106 10 -106 6 0 10 -7 10 -16 0 -8 5 -12 10 -9 6 4 10
-12 10 -40 0 -28 -4 -44 -10 -40 -6 3 -2 -15 8 -41 14 -39 23 -49 50 -56 17
-5 32 -12 32 -17 0 -5 9 -11 20 -14 12 -3 20 0 20 7 0 8 18 13 48 14 66 3 105
12 117 28 5 8 29 16 53 18 24 2 52 12 62 21 16 14 37 16 145 13 98 -2 128 -6
135 -18 7 -11 12 -12 18 -3 7 11 60 24 112 28 41 3 80 16 80 28 0 6 3 8 6 4 3
-3 18 -1 33 5 23 9 44 15 77 21 31 7 114 74 114 93 0 7 6 14 14 17 7 3 17 18
20 33 4 15 18 41 32 57 13 16 22 33 18 38 -3 5 0 9 7 9 7 0 10 3 6 6 -3 4 1
13 9 21 8 9 13 22 10 29 -3 8 -1 14 4 14 6 0 10 9 10 19 0 11 5 21 12 23 12 4
13 8 26 78 5 25 18 61 30 82 11 20 18 39 15 42 -3 3 1 8 10 12 8 3 18 23 22
45 4 25 12 39 21 39 9 0 12 5 9 10 -3 6 -3 10 2 10 4 0 16 28 27 63 10 34 22
71 27 82 18 42 21 106 6 124 -9 9 -17 27 -19 41 -1 14 -10 33 -18 43 -8 10
-16 22 -16 27 -1 6 -2 14 -3 19 0 5 -17 26 -36 47 -19 22 -35 42 -35 45 0 3
-24 31 -52 61 l-53 56 -196 1 c-137 0 -199 -3 -207 -11z"/>
<path d="M7923 11284 c-44 -15 -91 -65 -98 -103 -3 -17 -11 -60 -19 -96 -7
-36 -11 -65 -7 -65 3 0 1 -4 -4 -8 -17 -12 -55 -82 -55 -101 0 -10 -8 -33 -17
-52 -10 -19 -18 -40 -19 -47 -2 -8 -10 -22 -18 -31 -9 -10 -16 -25 -16 -34 0
-22 -21 -67 -30 -62 -4 2 -7 -1 -8 -8 0 -7 -3 -21 -6 -32 -2 -11 -5 -24 -5
-28 -1 -5 -5 -6 -9 -3 -4 2 -9 -5 -9 -16 -1 -12 -7 -33 -12 -47 -6 -14 -12
-39 -15 -56 -3 -16 -14 -61 -25 -99 -11 -38 -19 -72 -16 -76 2 -4 -5 -44 -15
-90 -17 -67 -19 -100 -13 -178 8 -116 24 -141 92 -146 24 -2 46 -8 50 -14 4
-6 43 -10 96 -10 75 0 95 4 120 21 41 29 55 44 55 57 0 6 4 9 9 6 9 -6 61 77
61 96 0 5 9 19 20 31 11 12 26 39 32 60 14 46 35 58 55 31 13 -17 27 -19 162
-18 111 1 153 5 165 15 38 32 65 63 60 71 -3 4 0 8 6 8 6 0 8 5 5 10 -3 6 -1
10 4 10 6 0 11 20 11 44 0 27 5 46 12 48 10 4 13 40 13 136 0 73 3 132 8 132
4 0 -2 17 -13 37 -11 21 -20 41 -20 46 0 5 -6 14 -12 21 -7 7 -22 25 -33 39
-11 15 -26 27 -34 27 -8 0 -11 3 -8 6 4 4 -10 20 -31 35 -42 33 -39 30 -92 89
-22 25 -40 50 -40 57 0 7 -11 23 -25 37 -13 13 -27 37 -31 53 -4 15 -15 44
-25 63 -9 19 -20 47 -23 63 -4 15 -13 27 -21 27 -8 0 -15 6 -15 13 0 38 -120
57 -197 31z"/>
<path d="M13527 8754 c-1 -2 -26 -6 -56 -9 -29 -3 -64 -11 -79 -17 -15 -6 -33
-12 -41 -14 -8 -1 -27 -12 -42 -23 -16 -12 -31 -21 -34 -21 -5 0 -23 -15 -65
-55 -22 -21 -60 -70 -60 -78 0 -5 -4 -6 -9 -2 -6 3 -13 -10 -17 -30 -3 -19
-10 -33 -14 -30 -9 6 -31 -67 -36 -124 -3 -25 -5 -746 -5 -1601 0 -1078 -4
-1562 -11 -1577 l-11 -22 -800 -1 c-440 0 -805 -4 -811 -9 -6 -5 -36 -11 -67
-13 -35 -3 -63 -11 -74 -21 -9 -9 -20 -17 -25 -17 -20 0 -50 -69 -50 -114 0
-25 4 -46 8 -46 5 0 14 -18 21 -40 6 -22 16 -40 21 -40 5 0 11 -9 15 -19 3
-10 26 -41 50 -67 60 -66 65 -72 65 -79 0 -3 15 -21 33 -39 17 -19 52 -57 77
-85 25 -28 63 -70 85 -94 37 -40 57 -64 141 -167 16 -19 54 -60 84 -91 30 -32
64 -69 75 -84 11 -14 32 -39 48 -56 15 -16 27 -32 27 -34 0 -5 5 -10 98 -108
34 -36 62 -68 62 -71 0 -4 12 -19 28 -34 15 -15 44 -48 64 -72 51 -62 80 -96
141 -163 84 -93 90 -100 132 -151 21 -27 55 -66 75 -87 19 -20 50 -54 68 -75
18 -22 51 -57 72 -80 22 -23 40 -45 40 -49 0 -5 15 -22 33 -39 19 -17 42 -43
51 -58 10 -15 22 -25 27 -23 5 3 11 -6 15 -20 3 -13 10 -23 14 -20 5 3 14 -8
21 -24 7 -16 16 -28 19 -26 3 2 15 -10 25 -26 11 -16 28 -32 38 -35 9 -3 15
-9 13 -13 -3 -4 15 -29 40 -55 24 -26 44 -52 44 -57 0 -5 7 -9 15 -9 8 0 15
-4 15 -9 0 -4 10 -20 23 -34 12 -14 42 -49 67 -78 25 -28 55 -62 68 -75 12
-13 22 -28 22 -34 0 -5 7 -10 15 -10 8 0 15 -6 15 -13 0 -7 11 -21 25 -31 14
-10 25 -25 25 -32 0 -8 7 -14 15 -14 8 0 15 -5 15 -11 0 -6 6 -16 13 -24 6 -7
27 -32 46 -55 32 -39 71 -82 136 -151 14 -14 25 -31 25 -38 0 -7 4 -10 9 -6 6
3 15 -5 22 -17 7 -12 17 -28 23 -34 6 -6 34 -38 61 -70 28 -32 69 -78 93 -100
23 -23 42 -49 42 -58 0 -9 3 -15 8 -14 4 1 44 -35 88 -80 45 -45 88 -82 95
-82 8 0 30 -10 49 -22 31 -19 49 -22 145 -22 61 1 117 3 125 6 66 21 130 67
207 148 18 19 42 44 53 55 11 12 20 26 20 33 0 7 4 12 10 12 11 0 56 45 86 86
36 49 69 88 92 110 12 12 22 26 22 32 0 6 9 14 20 17 11 3 20 10 20 15 0 5 17
27 38 48 62 65 122 135 122 142 0 5 11 18 25 31 13 13 25 30 25 36 0 7 5 12
11 10 6 -1 16 6 22 17 7 10 38 45 70 78 31 33 57 64 57 68 0 5 9 12 20 15 11
3 20 15 20 26 0 10 5 19 10 19 6 0 18 13 29 30 10 16 21 27 24 23 4 -3 7 -1 7
6 0 7 18 31 39 54 86 93 111 121 111 129 0 4 7 8 15 8 8 0 15 4 15 9 0 4 11
20 25 35 14 15 25 31 25 37 0 5 7 9 15 9 8 0 15 4 15 10 0 5 14 25 30 43 17
19 30 37 30 40 0 3 26 33 58 66 53 57 110 120 157 175 61 72 75 88 75 91 0 2
17 21 38 43 20 22 54 60 75 84 65 76 131 151 155 176 12 14 22 29 22 33 0 5 7
9 15 9 8 0 15 4 15 9 0 11 34 53 68 84 12 11 22 27 22 34 0 8 5 11 10 8 6 -3
10 -3 10 2 0 4 17 26 38 49 33 36 76 87 135 158 34 41 122 139 170 188 26 27
47 52 47 56 0 5 20 30 45 56 25 27 45 53 45 57 0 5 7 9 15 9 8 0 15 6 15 13 0
7 14 23 30 37 17 14 30 28 30 32 0 12 58 67 64 61 3 -4 6 0 6 8 0 14 30 55 70
94 11 12 20 26 20 33 0 7 5 10 10 7 6 -3 10 -2 10 3 0 6 15 26 33 45 39 42 62
70 63 77 3 17 24 59 33 65 6 3 11 31 11 61 0 33 -4 53 -10 49 -5 -3 -12 5 -15
18 -4 14 -17 29 -31 36 -13 6 -24 15 -24 20 0 9 -89 27 -106 21 -4 -1 -10 3
-14 9 -5 8 -235 12 -822 12 -693 0 -817 2 -822 14 -5 13 -6 208 -6 750 0 1079
-7 2454 -12 2473 -13 43 -60 137 -81 160 -11 12 -17 22 -13 22 4 0 -6 14 -22
30 -17 17 -33 30 -36 30 -3 0 -16 10 -30 23 -32 30 -54 47 -59 47 -3 0 -22 8
-43 17 -50 21 -62 24 -101 26 -18 1 -33 4 -33 7 0 4 -131 7 -292 8 -218 1
-294 -2 -300 -11 -5 -8 -8 -8 -8 -1 0 17 -720 17 -720 1 0 -8 -3 -9 -8 -1 -6
9 -187 16 -195 8z"/>
</g>
</svg>
