<?xml version="1.0" standalone="no"?>
<!DOCTYPE svg PUBLIC "-//W3C//DTD SVG 20010904//EN"
 "http://www.w3.org/TR/2001/REC-SVG-20010904/DTD/svg10.dtd">
<svg version="1.0" xmlns="http://www.w3.org/2000/svg"
 width="2884.000000pt" height="3000.000000pt" viewBox="0 0 2884.000000 3000.000000"
 preserveAspectRatio="xMidYMid meet">

<g transform="translate(0.000000,3000.000000) scale(0.100000,-0.100000)"
fill="#000000" stroke="none">
<path d="M9385 29603 c-57 -4 -481 -55 -655 -79 -325 -44 -1026 -194 -1477
-314 -1025 -275 -2089 -853 -2955 -1607 -271 -235 -614 -599 -815 -864 -308
-407 -635 -1007 -809 -1487 -120 -330 -164 -653 -164 -1193 0 -297 10 -452 42
-674 31 -212 31 -466 0 -624 -30 -150 -80 -313 -146 -474 -30 -73 -79 -193
-110 -268 -30 -74 -67 -180 -82 -235 -25 -88 -28 -117 -28 -254 0 -130 3 -168
22 -238 35 -128 92 -280 175 -467 133 -299 198 -487 240 -690 47 -225 52 -285
52 -590 -1 -420 -16 -516 -118 -730 -60 -128 -61 -132 -65 -230 -8 -198 41
-485 129 -749 124 -374 342 -712 533 -825 96 -57 293 -91 536 -91 266 -1 406
-53 561 -211 292 -296 319 -483 138 -970 -57 -155 -99 -294 -99 -330 0 -9 8
-27 19 -40 16 -20 22 -22 44 -12 13 6 47 43 74 82 l50 70 94 -65 c177 -122
295 -135 397 -42 23 21 54 43 68 48 73 28 150 -5 222 -95 102 -129 152 -127
412 10 99 52 189 75 293 75 138 0 239 -47 347 -161 72 -77 129 -77 233 -3 144
103 180 123 235 135 105 22 189 -4 415 -127 l68 -37 172 116 c203 137 308 190
352 181 42 -9 130 -55 227 -118 46 -30 100 -62 120 -72 37 -17 37 -17 72 10
19 14 72 58 116 96 160 138 216 165 333 158 61 -3 88 -11 174 -51 89 -42 105
-47 125 -36 13 6 73 62 133 124 124 127 174 157 271 163 48 3 81 -2 158 -27
54 -18 100 -30 102 -28 2 2 -18 16 -45 30 -82 45 -142 123 -186 243 -34 93
-67 164 -76 164 -10 0 -79 -94 -139 -190 -93 -150 -109 -157 -211 -87 -144 96
-143 151 3 441 170 336 283 457 563 602 82 43 130 60 265 92 171 42 280 77
280 92 0 19 -201 23 -685 13 -280 -5 -511 -9 -513 -8 -1 1 43 77 98 169 122
201 181 320 188 381 7 70 -17 71 -85 2 -65 -66 -122 -89 -222 -91 -83 -1 -153
19 -191 54 -72 67 -92 348 -31 431 l20 26 -32 31 c-61 59 -248 132 -337 132
-21 0 -35 8 -47 26 -15 23 -15 34 -5 93 15 91 43 116 121 108 76 -7 166 -45
291 -123 135 -84 354 -191 497 -242 100 -37 346 -110 582 -173 l84 -23 159
-198 c87 -109 215 -275 284 -368 90 -120 135 -172 158 -182 23 -10 70 -12 181
-8 83 2 200 5 260 5 101 0 110 -1 110 -19 0 -29 -44 -55 -110 -66 -33 -5 -184
-10 -335 -10 -151 0 -281 -4 -288 -9 -11 -6 -8 -13 13 -29 105 -83 551 -40
804 79 99 46 207 114 215 134 7 19 -9 28 -34 20 -26 -8 -27 19 0 62 44 73 274
213 350 213 28 0 31 -3 24 -22 -7 -22 -7 -22 22 -4 122 78 215 173 262 269 59
119 199 215 397 273 76 22 120 27 283 34 179 7 196 9 246 34 33 16 78 52 115
92 99 106 295 412 488 764 80 146 97 160 238 185 261 47 394 100 541 219 141
114 273 268 302 355 14 41 15 101 3 134 -40 105 -146 91 -471 -63 -207 -98
-352 -156 -515 -207 -154 -48 -478 -155 -615 -202 -247 -86 -434 -79 -647 24
-236 113 -384 262 -462 464 -59 153 -62 253 -30 868 l21 402 -142 243 c-78
134 -149 254 -157 267 -15 23 -17 19 -97 -130 -93 -173 -140 -233 -205 -263
-42 -19 -62 -21 -226 -19 -99 1 -195 5 -214 8 l-34 7 6 -174 c24 -600 20 -815
-19 -1043 -73 -433 -249 -735 -569 -976 -114 -86 -228 -139 -389 -183 -465
-128 -1024 -139 -1485 -30 -751 177 -1316 635 -1504 1220 -54 168 -70 281 -71
489 0 146 3 187 17 218 14 33 21 38 44 35 23 -2 40 -20 88 -92 75 -112 103
-128 224 -134 75 -3 92 0 131 20 50 26 85 76 75 108 -11 33 -47 50 -131 60
-102 11 -208 45 -418 132 -93 38 -184 72 -203 75 l-33 6 22 -49 c20 -43 23
-65 23 -184 0 -115 -3 -141 -20 -175 -16 -32 -26 -41 -51 -43 -25 -2 -38 5
-72 42 -48 53 -96 144 -117 223 -19 74 -9 113 50 182 25 29 45 57 45 63 0 20
-71 74 -232 178 -184 118 -357 211 -437 234 -103 30 -183 15 -259 -49 -52 -43
-55 -64 -28 -153 37 -119 49 -188 50 -299 1 -115 -9 -140 -44 -108 -29 26 -32
19 -70 -141 -37 -158 -97 -286 -194 -414 -35 -47 -152 -177 -260 -290 -227
-236 -326 -354 -396 -469 -86 -144 -117 -282 -100 -447 20 -191 12 -239 -56
-314 -103 -114 -397 -252 -661 -310 -181 -40 -401 -21 -524 46 -68 37 -144
121 -180 199 -50 106 -63 210 -52 415 19 370 -29 771 -141 1181 -68 248 -135
391 -231 493 -68 73 -75 95 -45 148 17 30 24 66 31 146 4 59 18 136 30 172 70
214 275 422 543 551 60 29 107 43 176 54 113 16 266 49 485 103 205 51 263 57
337 38 136 -36 285 -135 455 -300 184 -178 291 -315 388 -498 31 -60 58 -108
61 -108 8 0 -51 152 -122 312 -105 237 -114 263 -114 320 0 90 78 181 231 266
63 36 161 72 196 72 44 0 101 -39 220 -151 131 -123 188 -166 239 -180 29 -8
34 -14 34 -39 0 -24 10 -35 68 -73 37 -25 158 -90 269 -146 161 -80 215 -113
267 -159 70 -64 215 -166 285 -202 33 -16 46 -19 51 -9 27 43 -91 173 -216
238 -101 52 -134 85 -145 147 -31 164 100 554 254 759 56 74 92 106 169 152
42 26 109 74 148 109 89 78 169 113 460 199 119 35 252 78 295 95 185 74 315
17 315 -137 0 -51 -4 -67 -25 -91 -35 -41 -88 -52 -263 -52 -110 0 -153 -4
-167 -14 -15 -11 -20 -30 -23 -103 l-4 -91 513 -5 c510 -5 660 -14 964 -52
432 -55 910 -178 1171 -300 175 -82 250 -140 474 -366 191 -193 209 -208 259
-223 210 -62 417 70 486 308 23 79 17 219 -13 296 -32 82 -129 251 -266 465
-199 310 -318 535 -351 664 -29 113 -45 271 -45 449 0 438 65 669 356 1252
196 392 334 618 554 903 54 71 111 154 125 185 15 32 64 111 110 178 91 132
135 212 135 244 0 23 16 58 66 140 45 76 78 182 78 256 0 198 -248 433 -691
656 -209 106 -230 110 -293 59 -154 -124 -377 -99 -595 67 -153 116 -189 198
-125 293 80 121 232 173 393 135 134 -31 249 -108 385 -256 91 -99 143 -134
212 -144 85 -13 315 -137 511 -276 86 -62 145 -109 249 -200 150 -133 183
-148 282 -130 80 15 167 51 239 100 118 80 217 117 275 101 37 -9 65 -66 67
-136 1 -64 -25 -104 -86 -134 -63 -31 -106 -27 -157 12 -132 100 -166 92 -162
-37 3 -88 -7 -188 -18 -181 -5 3 -14 -5 -21 -17 -7 -13 -139 -151 -293 -308
-253 -257 -393 -409 -483 -525 -36 -47 -307 -485 -415 -670 -92 -158 -150
-273 -146 -287 2 -6 50 40 107 101 90 97 131 129 131 104 0 -4 -16 -86 -35
-182 -50 -258 -68 -406 -68 -576 0 -256 39 -392 217 -759 l101 -209 109 169
c133 206 266 442 302 538 15 38 38 81 51 94 25 25 24 25 124 5 38 -7 78 32
129 126 53 100 133 189 203 229 75 42 115 78 153 138 64 99 373 304 709 469
199 97 308 141 472 189 257 75 446 105 719 113 240 7 389 -5 634 -52 198 -37
280 -49 280 -41 0 16 -80 223 -152 390 -187 440 -402 830 -711 1289 -88 130
-157 240 -153 244 4 4 102 7 219 8 198 0 216 -1 268 -23 215 -87 549 -461 831
-932 450 -749 781 -1687 893 -2526 94 -712 99 -1450 15 -2104 -96 -740 -278
-1395 -650 -2340 -70 -179 -185 -473 -254 -655 -228 -594 -336 -843 -416 -960
-108 -156 -339 -360 -582 -511 -51 -32 -178 -100 -283 -152 -271 -134 -354
-199 -409 -317 -34 -73 -46 -132 -56 -276 -5 -70 -16 -144 -24 -164 -23 -54
-72 -71 -233 -79 -72 -4 -154 -13 -182 -22 -57 -16 -108 -55 -122 -92 -12 -31
-1 -92 18 -99 8 -3 49 10 91 30 136 63 267 94 490 118 61 6 112 15 112 20 0
40 45 299 61 354 35 115 52 140 146 210 84 62 155 104 498 297 262 148 428
262 525 364 164 171 321 447 415 729 25 77 80 219 120 316 41 96 80 200 86
230 15 68 77 233 218 576 299 729 424 1128 551 1763 183 913 219 1514 139
2315 -154 1552 -648 2793 -1535 3855 -699 838 -1540 1442 -2584 1855 -567 224
-1344 418 -1905 475 -462 46 -1296 80 -1550 63z m5032 -1904 c121 -13 269 -51
348 -89 58 -28 181 -117 173 -126 -3 -2 -116 -11 -251 -19 -352 -21 -649 -71
-978 -166 -234 -67 -310 -100 -424 -182 l-69 -50 -63 68 c-65 70 -83 106 -66
134 46 74 375 201 781 302 204 50 310 86 341 113 14 13 42 20 94 25 10 0 61
-4 114 -10z m-10697 -5160 c36 -8 56 -18 67 -36 16 -24 16 -26 -2 -39 -10 -8
-23 -14 -28 -14 -19 0 37 -61 118 -130 73 -61 86 -76 83 -98 -2 -22 -16 -33
-73 -62 -57 -29 -80 -35 -130 -34 -79 1 -166 46 -252 130 -66 64 -81 102 -69
168 9 45 72 103 123 111 21 4 45 8 53 10 31 6 61 5 110 -6z m2327 -1885 c6
-17 -68 -361 -100 -459 -31 -97 -101 -222 -188 -338 -91 -121 -244 -287 -265
-287 -38 0 14 115 148 322 164 257 237 414 269 585 22 117 33 150 56 175 20
23 71 24 80 2z m-1087 -1119 c264 -77 534 -196 555 -244 8 -19 15 -22 45 -17
19 3 45 8 58 12 31 9 28 -11 -7 -52 -53 -60 -57 -114 -17 -193 10 -18 97 -112
195 -209 183 -183 298 -323 429 -522 178 -269 247 -458 259 -710 16 -338 -110
-632 -315 -736 -52 -27 -66 -29 -162 -29 -90 1 -114 4 -168 27 -188 78 -328
219 -310 313 3 14 3 25 1 25 -10 0 -71 -47 -143 -110 -176 -154 -256 -200
-347 -200 -50 0 -67 5 -100 29 -54 39 -101 98 -167 211 -102 172 -137 293
-156 535 -20 265 -44 404 -88 515 -65 165 -86 370 -71 710 14 319 32 495 58
562 13 34 64 74 132 105 72 32 154 26 319 -22z m6725 -514 c113 -34 327 -112
381 -138 30 -14 54 -32 54 -39 0 -42 -208 19 -401 117 -108 55 -141 79 -106
79 6 0 39 -8 72 -19z m693 -153 c19 -19 14 -56 -8 -68 -11 -6 -44 -10 -73 -8
-48 3 -52 5 -55 30 -3 21 3 30 25 42 34 18 94 21 111 4z m-4625 -261 c63 -27
76 -106 31 -195 -39 -78 -98 -101 -167 -66 -109 56 -211 167 -205 226 3 30 7
34 48 45 61 17 243 10 293 -10z m2079 -131 c302 -90 509 -167 559 -208 24 -20
51 -77 47 -101 -6 -41 -54 -34 -169 26 -134 70 -233 105 -506 178 -229 60
-293 81 -293 97 0 13 31 39 60 51 52 20 118 11 302 -43z m-5505 -116 c81 -206
154 -509 228 -950 75 -446 87 -568 83 -855 l-3 -210 -74 150 c-67 138 -80 156
-155 231 -64 64 -99 90 -166 122 -135 66 -209 79 -585 112 -144 12 -192 25
-213 60 -22 33 -33 41 -54 34 -9 -3 -31 2 -48 11 -84 43 -69 105 124 518 l97
207 -70 81 c-81 93 -131 185 -131 239 0 43 14 60 52 60 37 0 68 -32 68 -70 0
-42 31 -70 79 -70 55 0 177 64 286 151 95 75 173 119 215 119 35 1 95 30 160
78 30 23 62 40 70 39 8 -1 25 -27 37 -57z m-1649 5 c1 -22 -2 -46 -7 -54 -16
-25 -31 -1 -31 50 0 43 3 50 18 47 12 -2 18 -14 20 -43z m9639 -110 c13 -28
14 -39 5 -60 -17 -36 -89 -66 -178 -72 -69 -5 -74 -4 -74 14 0 41 144 153 197
153 28 0 36 -5 50 -35z m-9043 -107 c40 -53 117 -221 114 -248 -5 -41 -40 -38
-77 6 -61 75 -118 274 -78 274 9 0 27 -15 41 -32z m2020 -1386 c84 -46 91 -63
90 -210 -2 -195 -28 -245 -98 -184 -18 16 -104 68 -190 116 -249 137 -316 187
-316 233 0 27 14 26 80 -7 72 -36 167 -42 224 -15 18 9 48 34 65 56 39 48 74
51 145 11z m348 -72 c46 -10 142 -28 213 -39 146 -23 187 -33 221 -56 30 -19
31 -56 3 -101 -33 -54 -75 -74 -159 -74 -125 0 -352 90 -391 155 -23 37 -25
98 -3 119 19 20 16 20 116 -4z"/>
<path d="M4480 17012 c0 -26 32 -113 69 -192 29 -61 30 -63 25 -25 -16 108
-61 235 -84 235 -6 0 -10 -8 -10 -18z"/>
<path d="M14332 28819 c-92 -9 -145 -23 -162 -44 -9 -11 -7 -16 7 -23 20 -11
187 -45 301 -62 77 -11 149 -39 176 -69 9 -10 32 -55 50 -99 54 -129 124 -217
373 -465 l169 -168 305 -34 c418 -46 591 -76 675 -116 26 -12 80 -23 147 -29
306 -27 1127 -251 1997 -545 694 -235 1123 -411 1683 -691 1179 -590 2380
-1399 3273 -2205 93 -84 229 -206 301 -272 171 -154 457 -465 889 -967 460
-535 716 -870 1053 -1375 1153 -1730 1882 -3683 2180 -5840 72 -520 86 -805
78 -1595 -10 -951 -53 -1468 -173 -2125 -148 -805 -472 -1919 -778 -2675 -231
-570 -694 -1489 -1054 -2095 -192 -321 -775 -1196 -788 -1182 -3 2 -13 64 -24
138 -52 351 -46 1350 10 1641 29 153 98 343 215 593 114 244 145 318 145 339
0 22 -92 141 -210 271 l-112 124 -92 -80 c-179 -156 -390 -234 -704 -257 -97
-8 -116 -12 -137 -32 -29 -27 -31 -49 -10 -90 15 -30 83 -82 122 -94 30 -10
138 -81 196 -130 144 -121 276 -358 253 -452 -10 -39 -32 -28 -93 48 -55 69
-58 70 -61 44 -2 -16 3 -69 12 -120 44 -256 54 -424 65 -1016 6 -313 13 -476
21 -497 11 -31 13 -32 33 -18 36 25 57 19 58 -17 5 -108 -21 -430 -47 -588
-20 -123 -65 -257 -108 -323 -37 -58 -182 -204 -192 -195 -3 4 11 33 32 65 60
94 58 124 -15 268 -63 124 -133 227 -176 258 -26 20 -65 15 -65 -7 0 -7 20
-56 45 -108 53 -112 62 -148 45 -187 -13 -32 -41 -47 -110 -59 l-45 -8 3 -41
c5 -56 -22 -104 -100 -179 -87 -85 -157 -130 -348 -222 -91 -44 -175 -91 -188
-104 -21 -24 -22 -25 -4 -41 10 -9 51 -23 92 -32 145 -30 180 -67 180 -190 0
-91 -12 -130 -62 -207 -67 -102 -593 -616 -722 -705 l-38 -27 -19 23 c-76 94
-250 1052 -474 2614 -83 574 -139 845 -365 1767 -174 708 -256 1062 -314 1356
-25 127 -55 262 -67 300 -48 154 -113 241 -237 313 -178 104 -623 278 -1157
454 -399 131 -567 177 -755 207 -63 10 -140 24 -171 31 -52 12 -58 11 -110
-13 -29 -14 -98 -59 -152 -101 l-99 -76 114 -35 c147 -45 311 -86 528 -131
272 -57 505 -119 745 -200 233 -78 536 -190 670 -247 78 -34 80 -36 83 -72 4
-44 -29 -119 -117 -271 -160 -274 -318 -673 -371 -932 -20 -101 -28 -273 -12
-273 25 0 182 267 284 481 98 207 297 495 449 651 100 103 116 104 163 11 105
-211 339 -976 421 -1376 42 -210 142 -881 230 -1545 109 -823 217 -1543 310
-2067 62 -349 87 -467 151 -726 61 -244 63 -268 21 -330 -32 -48 -106 -104
-400 -306 -783 -538 -1454 -905 -2397 -1310 -368 -158 -667 -273 -712 -273
-23 0 -29 17 -74 193 -19 78 -51 175 -70 215 -34 71 -38 75 -101 104 -114 54
-120 35 -97 -279 12 -157 15 -245 8 -270 -9 -36 -11 -38 -79 -53 -38 -9 -112
-35 -164 -59 -51 -23 -101 -41 -110 -39 -12 3 -16 15 -16 50 l0 46 -67 -64
c-111 -104 -254 -163 -613 -253 -66 -17 -160 -37 -210 -46 -62 -10 -101 -23
-127 -42 -35 -23 -44 -25 -102 -19 -35 3 -126 24 -200 46 -182 53 -177 54
-170 -18 8 -69 3 -75 -82 -97 -91 -24 -382 -63 -554 -75 -249 -17 -365 -29
-530 -56 -234 -39 -242 -37 -507 138 -297 195 -445 318 -661 545 -128 134
-277 273 -302 281 -34 12 -199 -206 -235 -310 l-18 -55 37 -68 c73 -132 250
-352 379 -470 69 -63 71 -66 53 -80 -40 -30 -376 -15 -1026 45 -805 75 -1020
107 -1900 281 -432 86 -630 131 -865 199 -215 61 -370 100 -406 100 -33 0 -64
-33 -134 -145 -75 -119 -226 -422 -228 -459 -2 -26 2 -30 53 -48 203 -70 1074
-277 1630 -387 748 -148 1559 -248 2440 -303 316 -19 1206 -16 1510 5 1346 96
2300 269 3420 622 1038 327 1837 681 2780 1233 1174 687 2273 1611 3261 2742
460 528 895 1080 1133 1439 343 518 861 1457 1181 2141 257 550 513 1250 721
1973 637 2219 713 4393 229 6612 -144 662 -387 1487 -605 2055 -150 391 -486
1130 -777 1709 -179 356 -304 576 -367 647 -27 30 -67 92 -90 137 -50 99 -214
358 -379 597 -1429 2078 -3223 3667 -5409 4789 -1237 635 -2586 1108 -4098
1435 -682 147 -1150 220 -1591 246 -176 10 -237 20 -249 41 -16 25 -249 36
-428 18z m9928 -23494 c0 -40 -133 -228 -215 -305 -57 -53 -42 -14 48 121 110
165 167 228 167 184z"/>
<path d="M12430 26785 c18 -19 36 -32 39 -30 6 7 -50 65 -63 65 -5 0 5 -16 24
-35z"/>
<path d="M14400 25354 c-372 -49 -850 -241 -1233 -494 -274 -182 -470 -344
-697 -577 -265 -271 -423 -490 -577 -797 -149 -298 -170 -366 -115 -387 43
-17 177 -4 261 25 41 14 113 47 160 72 112 61 157 77 182 64 27 -15 24 -45
-15 -168 -47 -145 -59 -241 -58 -477 1 -337 36 -554 116 -722 125 -258 403
-615 521 -666 22 -10 47 -22 55 -26 19 -11 29 -60 32 -173 3 -90 2 -93 -20
-96 -27 -4 -95 -67 -90 -83 11 -34 160 -53 219 -29 35 15 48 7 31 -20 -17 -28
-15 -35 14 -49 22 -10 25 -16 21 -40 -8 -37 8 -51 59 -51 71 0 166 35 219 82
70 62 110 68 508 75 l338 6 206 161 c118 91 260 213 329 282 90 89 159 146
261 214 246 167 461 407 533 593 83 215 187 833 212 1259 37 632 -107 1599
-272 1827 -35 48 -76 62 -323 115 -272 59 -420 77 -642 81 -110 2 -216 1 -235
-1z m-1664 -1120 c58 -28 91 -122 60 -169 -15 -23 -23 -25 -92 -25 -122 0
-184 41 -170 113 15 80 118 121 202 81z m354 -3364 c13 -9 12 -12 -4 -25 -11
-8 -28 -15 -37 -15 -26 0 -69 18 -69 29 0 19 85 27 110 11z"/>
<path d="M12366 21279 c40 -144 260 -535 364 -649 40 -44 39 -42 -16 45 -142
223 -257 435 -313 577 -32 81 -56 98 -35 27z"/>
<path d="M2904 20523 c4 -21 20 -79 36 -128 54 -168 93 -350 140 -667 16 -108
36 -229 44 -269 15 -69 38 -119 55 -119 43 0 91 160 98 325 6 120 5 121 -35
240 -52 156 -137 352 -209 482 -89 159 -143 217 -129 136z"/>
<path d="M20475 20134 c-22 -2 -96 -9 -165 -14 -347 -30 -739 -113 -1226 -259
-420 -127 -580 -201 -914 -425 -186 -125 -363 -269 -505 -411 -784 -784 -1020
-1891 -704 -3299 61 -271 127 -446 308 -821 202 -417 320 -589 519 -756 95
-79 184 -139 210 -139 34 0 1 48 -164 240 -164 192 -435 657 -559 960 -70 169
-88 277 -146 850 -31 308 -33 354 -20 378 18 33 61 29 98 -10 68 -73 164 -247
183 -332 16 -73 127 -237 345 -511 110 -138 164 -200 317 -364 l78 -84 128 12
c194 20 292 39 347 68 44 24 64 27 173 31 281 9 429 -46 901 -337 426 -263
564 -302 891 -251 201 31 285 26 454 -30 71 -23 190 -73 265 -110 109 -55 147
-80 186 -121 32 -35 45 -54 36 -57 -7 -2 -62 19 -121 48 -97 47 -190 74 -190
56 0 -4 5 -16 10 -26 18 -34 -2 -73 -69 -137 -77 -74 -79 -86 -35 -223 32
-104 55 -150 98 -198 50 -56 56 -74 66 -190 11 -130 30 -195 70 -244 37 -44
58 -47 98 -13 79 66 94 274 26 355 -43 50 -30 65 52 64 54 0 78 -5 106 -22 55
-34 69 -82 73 -242 4 -154 17 -219 51 -251 l24 -22 35 39 c50 54 92 131 106
192 17 72 -5 127 -77 189 -58 50 -66 68 -34 78 44 14 127 -19 199 -79 24 -20
49 -36 56 -36 7 0 36 18 64 40 73 58 90 62 213 54 104 -6 108 -6 152 20 57 33
88 32 156 -4 69 -38 103 -38 225 0 113 35 173 37 234 10 51 -23 89 -26 97 -6
9 24 65 40 144 41 94 0 140 -10 168 -36 19 -17 22 -31 22 -92 0 -73 -30 -277
-40 -277 -3 0 -17 44 -29 98 -13 53 -34 120 -46 147 -23 54 -75 105 -105 105
-28 0 -76 -54 -95 -107 -24 -63 -33 -345 -13 -382 21 -40 73 -64 138 -65 48
-1 66 4 109 32 63 39 88 40 103 6 16 -34 62 -58 87 -45 32 18 46 70 45 171 0
81 -5 109 -32 185 -35 97 -41 165 -17 185 24 20 18 53 -34 209 -60 178 -79
269 -91 426 -13 184 -31 214 -90 147 -65 -76 -101 -50 -151 111 l-31 99 -50
-83 c-102 -170 -175 -239 -256 -239 -79 0 -208 108 -232 195 -26 92 6 246 85
410 68 142 322 548 473 755 123 170 166 192 240 125 21 -19 46 -51 54 -72 40
-96 37 -92 37 -47 2 92 -79 190 -256 311 -121 83 -169 142 -288 353 -60 107
-102 160 -125 160 -30 0 -210 -96 -282 -150 -72 -54 -99 -87 -115 -134 -13
-43 -31 -43 -48 -2 -9 20 -19 36 -24 36 -11 0 -71 -150 -71 -176 0 -11 5 -14
18 -9 61 25 105 36 133 33 28 -3 34 -8 42 -37 23 -90 -27 -249 -117 -375 -64
-90 -214 -229 -281 -261 -133 -63 -425 -102 -675 -92 -252 11 -391 46 -519
132 -152 101 -251 249 -309 465 -23 85 -25 115 -26 288 -1 177 -3 195 -20 208
-45 33 -220 31 -278 -3 -45 -26 -97 -97 -162 -223 -69 -134 -113 -259 -125
-360 -12 -96 -47 -170 -93 -198 -83 -51 -334 -132 -658 -211 -505 -123 -903
-181 -940 -136 -24 28 -5 49 85 94 95 49 201 120 300 203 33 27 86 63 118 78
125 61 277 191 277 235 0 67 -126 260 -251 384 -99 99 -189 164 -331 238 -108
56 -145 84 -134 101 3 5 26 6 53 2 223 -36 551 -292 732 -571 l78 -121 17 69
c43 174 111 251 402 453 258 179 367 269 399 330 47 91 42 551 -10 800 -24
120 -35 147 -89 226 -59 87 -141 243 -132 252 3 3 7 3 9 1 52 -69 133 -161
147 -169 30 -16 59 -12 168 25 121 42 194 46 258 15 46 -23 201 -177 253 -253
72 -105 91 -194 71 -334 -34 -249 -82 -342 -333 -653 -90 -109 -154 -207 -144
-216 3 -4 20 4 38 17 40 28 126 49 209 49 132 1 222 34 392 146 131 87 310
171 508 239 173 60 250 97 250 120 0 7 -11 26 -24 42 -53 64 -58 96 -22 158
44 74 163 118 229 84 12 -6 47 -33 77 -58 85 -73 100 -81 151 -81 56 0 163
-31 190 -56 23 -21 25 -42 4 -50 -24 -10 -17 -39 21 -90 51 -67 91 -158 103
-234 16 -97 83 -214 141 -245 28 -14 32 -13 170 43 94 38 194 58 335 68 144 9
148 11 151 63 4 76 103 257 212 388 134 161 391 180 466 34 8 -14 19 -52 25
-83 13 -72 34 -114 107 -208 83 -109 97 -146 102 -267 5 -117 -13 -222 -78
-448 -69 -241 -90 -371 -90 -560 0 -158 -1 -165 -24 -191 -23 -28 -24 -28
-181 -32 l-157 -4 99 -53 c122 -66 218 -151 258 -231 28 -55 30 -66 29 -169 0
-127 -25 -209 -77 -256 -34 -31 -31 -59 6 -59 54 0 163 113 223 231 28 56 80
229 93 310 12 72 -2 134 -53 234 -60 119 -80 242 -80 495 0 247 12 337 74 551
50 175 62 244 62 349 0 116 -13 164 -82 311 -33 69 -67 154 -76 190 -9 35 -42
118 -74 184 -68 140 -98 233 -140 440 -99 478 -313 870 -674 1230 -518 516
-1183 811 -2056 910 -127 15 -588 28 -675 19z m-1955 -1222 c0 -13 -31 -38
-77 -61 -71 -36 -110 -23 -78 25 9 14 26 29 38 34 28 11 117 13 117 2z m1811
-3462 c59 -32 -32 -139 -185 -216 -90 -46 -92 -46 -176 -42 -70 3 -113 14
-243 58 -87 29 -154 57 -150 61 4 4 53 28 108 52 102 45 192 71 300 86 87 12
323 13 346 1z m1449 -271 c65 -14 110 -51 110 -89 0 -25 -5 -30 -37 -37 -67
-14 -404 -10 -440 6 -85 35 4 84 222 120 72 12 88 12 145 0z m147 -190 c52
-22 75 -61 51 -85 -8 -9 -64 -24 -124 -36 -267 -49 -356 -68 -381 -82 -72 -40
-92 -46 -117 -36 -60 22 -75 146 -25 196 33 33 121 53 279 63 165 10 262 5
317 -20z"/>
<path d="M14395 19248 c-56 -77 -134 -145 -285 -248 -129 -88 -165 -122 -157
-144 10 -26 85 -20 148 11 75 36 202 167 261 269 47 79 92 174 83 174 -3 0
-25 -28 -50 -62z"/>
<path d="M3280 18823 c0 -12 92 -63 114 -63 24 0 19 27 -9 46 -29 19 -105 31
-105 17z"/>
<path d="M13480 17525 c0 -19 5 -35 10 -35 6 0 10 16 10 35 0 19 -4 35 -10 35
-5 0 -10 -16 -10 -35z"/>
<path d="M13061 17364 c-111 -75 -246 -124 -341 -124 -22 0 -40 -4 -40 -10 0
-5 7 -10 15 -10 33 0 28 -31 -10 -64 -68 -58 -22 -74 90 -31 138 52 280 157
328 243 10 17 17 32 15 32 -2 0 -28 -16 -57 -36z"/>
<path d="M13402 17260 c-113 -329 -337 -643 -843 -1185 -224 -240 -279 -285
-346 -285 -49 0 -90 43 -219 232 -145 209 -195 267 -220 252 -31 -18 -40 -78
-69 -439 -23 -280 -50 -435 -76 -435 -12 0 -11 -27 -13 415 -2 410 -16 598
-66 915 -21 128 -62 299 -80 328 -6 11 -8 -174 -3 -543 6 -574 1 -706 -33
-950 -34 -232 -112 -478 -205 -641 -103 -180 -297 -388 -469 -503 -186 -124
-304 -138 -514 -62 -34 13 -75 21 -99 19 -56 -4 -75 -34 -86 -130 -13 -112
-56 -178 -150 -228 -13 -7 -69 -18 -124 -25 -120 -16 -132 -25 -205 -160 -62
-115 -85 -130 -197 -130 -120 1 -205 33 -308 118 -26 22 -49 38 -51 36 -1 -2
-10 -39 -20 -81 -28 -123 -122 -250 -235 -316 -36 -21 -59 -27 -106 -27 -53 0
-76 8 -193 64 -73 34 -140 60 -148 57 -8 -3 -14 -19 -14 -38 0 -47 -49 -126
-124 -201 -81 -81 -160 -122 -213 -112 -55 10 -150 56 -234 112 -41 28 -93 60
-116 72 -42 21 -42 21 -53 2 -5 -11 -10 -42 -10 -68 0 -135 -128 -252 -260
-240 -68 6 -144 43 -295 143 -116 76 -160 98 -177 88 -13 -8 -4 -79 18 -152
15 -47 24 -57 83 -97 64 -42 273 -219 279 -236 2 -5 -48 16 -110 45 -128 61
-186 79 -223 70 -38 -9 -88 -75 -125 -162 -40 -95 -90 -173 -139 -213 -32 -26
-210 -119 -229 -119 -4 0 -68 65 -142 144 l-135 144 -5 -206 c-5 -190 -7 -211
-28 -254 -29 -58 -71 -80 -169 -86 -94 -6 -114 7 -145 90 -16 45 -24 57 -26
41 -5 -33 -33 -29 -84 13 -55 47 -113 74 -160 74 -63 0 -86 30 -108 143 -30
150 -62 234 -178 465 -103 207 -137 256 -171 250 -35 -7 -24 -73 49 -289 86
-258 104 -353 97 -509 -6 -131 -29 -247 -94 -470 -80 -277 -96 -355 -97 -470
-1 -90 3 -116 27 -187 36 -104 87 -182 168 -258 124 -116 300 -185 471 -185
89 0 218 24 218 41 0 5 -51 9 -114 9 -147 0 -259 15 -316 43 -58 28 -63 52
-19 90 l34 28 -27 24 c-33 28 -128 65 -169 65 -34 0 -93 23 -104 40 -4 6 -2
17 4 23 8 8 41 5 126 -12 139 -29 180 -26 373 25 165 43 301 53 457 34 126
-15 138 -13 122 29 -6 17 -8 34 -4 38 19 19 338 -103 586 -223 85 -41 175 -80
200 -85 77 -17 453 -22 636 -10 374 26 728 86 837 142 22 11 48 35 59 54 21
35 119 107 232 169 l67 38 0 -68 c0 -65 -1 -68 -39 -104 -94 -90 -537 -277
-826 -349 -172 -43 -273 -55 -485 -55 -217 -1 -342 12 -590 60 -156 31 -317
42 -349 24 -20 -10 -21 -14 -9 -26 65 -65 1134 -130 1344 -81 99 23 249 71
384 124 417 164 1276 609 1616 837 l66 44 -37 12 c-44 14 -62 8 -75 -25 -5
-14 -14 -25 -20 -25 -19 0 -23 51 -7 86 29 60 104 58 137 -4 l18 -33 36 31
c27 24 36 40 36 64 0 18 9 70 21 117 25 100 35 113 202 246 121 97 330 243
347 243 17 0 11 -39 -15 -90 -14 -27 -25 -52 -25 -55 0 -3 11 -10 24 -15 14
-5 26 -19 28 -31 3 -20 12 -15 98 52 52 41 195 150 317 242 122 92 225 172
229 178 18 29 -180 -96 -213 -135 -28 -33 -50 -33 -64 -2 -17 35 -4 71 42 121
42 46 63 60 394 277 105 69 242 162 305 207 63 45 152 101 197 123 81 41 82
41 260 53 214 15 240 24 418 135 298 186 536 391 640 549 157 239 163 452 21
797 -145 354 -162 632 -71 1169 32 186 62 327 164 779 50 216 83 399 79 429
-2 13 -21 -29 -46 -103z m-298 -2622 c45 -63 -8 -299 -119 -534 -64 -136 -115
-212 -199 -297 -73 -74 -116 -93 -178 -77 -39 11 -114 63 -132 92 -15 24 7 45
159 148 141 95 207 154 272 240 84 112 142 263 143 368 0 45 14 82 30 82 5 0
16 -10 24 -22z m-2294 -1937 c0 -24 -16 -43 -66 -82 -30 -23 -57 -39 -61 -36
-8 9 44 83 75 108 26 20 52 25 52 10z m-2332 -797 c28 -19 28 -53 1 -88 -48
-61 -236 -171 -367 -215 -113 -38 -282 -22 -282 27 0 32 73 88 189 147 262
131 401 170 459 129z m1192 -123 c0 -63 -14 -75 -78 -66 -47 6 -49 5 -76 -29
-46 -61 -215 -175 -395 -268 -106 -54 -136 -59 -145 -25 -21 78 1 115 108 182
104 65 527 254 569 255 14 0 17 -9 17 -49z"/>
<path d="M9785 15775 c-72 -26 -85 -65 -85 -261 0 -236 20 -293 98 -272 57 16
184 76 210 101 37 34 52 71 52 129 0 66 -22 129 -69 198 -68 101 -131 133
-206 105z"/>
<path d="M9264 15594 c-73 -73 -168 -202 -209 -285 -111 -219 -71 -375 115
-445 33 -13 78 -17 170 -18 115 -1 129 1 181 25 85 40 139 126 139 223 0 110
-84 335 -166 448 -46 62 -108 108 -145 108 -21 0 -43 -14 -85 -56z"/>
<path d="M8525 15430 c-69 -45 -136 -203 -211 -500 -44 -171 -50 -275 -20
-308 39 -44 107 -57 301 -57 219 0 306 14 349 57 27 27 28 33 22 84 -13 112
-128 422 -213 573 -58 104 -129 171 -180 171 -10 0 -31 -9 -48 -20z"/>
<path d="M4476 15298 c-49 -117 -86 -786 -51 -922 28 -108 136 -286 172 -286
6 0 16 14 23 30 13 31 12 42 -9 228 -6 45 -19 212 -31 370 -31 442 -46 559
-75 598 -13 18 -15 17 -29 -18z"/>
<path d="M7652 15303 c-64 -31 -138 -140 -175 -258 -50 -155 -50 -542 0 -638
21 -42 73 -59 191 -65 188 -9 414 39 475 100 26 26 29 34 24 71 -16 112 -107
365 -203 564 -100 206 -203 280 -312 226z"/>
<path d="M5905 15273 c-68 -16 -85 -26 -115 -72 -69 -108 -133 -309 -145 -456
-6 -72 -89 -513 -99 -522 -6 -6 -7 0 -76 302 -101 445 -140 563 -208 627 -81
77 -145 105 -171 74 -21 -26 -50 -127 -70 -248 -55 -330 -55 -741 -1 -865 36
-82 92 -92 565 -100 368 -6 756 8 823 30 52 17 65 48 51 123 -27 145 -131 453
-234 689 -137 318 -230 439 -320 418z"/>
<path d="M6770 15227 c-94 -49 -139 -171 -176 -474 -21 -175 -30 -476 -15
-529 14 -52 21 -54 176 -54 184 0 459 45 522 86 40 25 66 91 60 149 -14 140
-241 631 -345 746 -83 92 -149 115 -222 76z"/>
<path d="M4676 15033 c-42 -367 -26 -672 41 -808 58 -117 143 -111 159 11 15
127 -13 452 -56 632 -20 84 -109 322 -120 322 -3 0 -14 -71 -24 -157z"/>
<path d="M9920 14765 c-45 -15 -107 -45 -300 -147 -130 -69 -277 -125 -395
-149 -137 -28 -185 -47 -185 -72 0 -31 33 -81 87 -133 66 -65 125 -103 211
-136 88 -34 130 -61 142 -94 6 -14 18 -24 29 -24 24 0 41 46 41 110 0 68 42
225 91 337 23 54 45 102 49 106 4 5 15 -33 24 -85 10 -51 26 -112 38 -135 55
-118 177 -109 240 17 37 74 69 198 75 291 5 73 4 79 -20 103 -30 29 -59 32
-127 11z"/>
<path d="M18653 14649 c4 -28 44 -164 91 -302 47 -139 92 -290 101 -336 21
-115 35 -401 35 -727 0 -149 3 -339 7 -423 l6 -152 30 -16 c21 -11 81 -17 211
-23 253 -12 311 -30 362 -113 54 -86 100 -115 674 -429 981 -537 1271 -685
1462 -748 47 -16 75 -19 112 -14 34 4 51 2 56 -6 15 -24 290 -32 835 -26 600
7 701 14 727 46 27 34 22 100 -17 218 -40 121 -152 352 -176 366 -12 7 -34 2
-77 -17 -78 -35 -98 -35 -117 4 -16 29 -17 30 -40 15 -13 -9 -39 -16 -57 -16
-69 0 -190 90 -258 192 l-41 62 7 -112 c6 -99 5 -112 -9 -112 -23 0 -37 32
-53 119 -16 93 -19 371 -3 371 6 0 82 -13 171 -30 163 -31 214 -35 234 -22 19
13 34 50 34 86 0 62 -67 92 -202 90 -45 -1 -67 -7 -98 -28 -68 -45 -110 -29
-110 42 0 35 -21 56 -48 48 -11 -4 -45 -29 -76 -56 -34 -30 -67 -50 -81 -50
-27 0 -55 35 -76 93 -7 20 -19 37 -26 37 -8 0 -47 -18 -88 -41 -57 -31 -83
-40 -112 -37 -53 4 -71 43 -79 178 l-7 104 -22 -75 c-39 -134 -67 -178 -101
-165 -15 6 -15 23 -9 165 8 167 1 195 -31 146 -9 -14 -28 -65 -41 -113 -27
-95 -46 -132 -68 -132 -25 0 -52 48 -75 132 -29 107 -64 178 -89 178 -27 0
-33 -22 -40 -138 -9 -139 -12 -141 -127 -116 -48 10 -93 25 -100 32 -9 9 -11
36 -7 100 5 82 3 90 -23 140 -16 30 -42 61 -57 70 -27 16 -29 16 -47 -6 -10
-12 -28 -53 -41 -90 -42 -130 -78 -182 -123 -182 -23 0 -20 31 8 87 26 53 46
134 46 191 0 99 112 224 135 152 9 -29 38 -41 118 -51 51 -6 83 -17 119 -40
42 -27 53 -30 73 -21 32 15 57 55 53 84 -5 35 -45 48 -180 58 -145 11 -167 16
-275 71 -72 37 -93 43 -165 47 l-83 5 64 -68 c74 -79 101 -121 101 -154 0 -23
-2 -23 -47 -16 -27 4 -56 7 -66 7 -49 -2 -76 -62 -87 -190 -8 -94 -19 -122
-49 -122 -51 0 -328 224 -527 427 -77 79 -146 143 -152 143 -19 0 -14 -65 18
-219 33 -161 37 -211 16 -211 -15 0 -46 66 -70 150 -60 211 -69 819 -16 1125
12 64 19 119 18 121 -2 1 -57 -35 -122 -82 -231 -165 -319 -204 -461 -204 -47
0 -85 3 -84 8 0 4 43 43 96 87 93 77 193 185 193 207 0 13 -14 2 -99 -74 -85
-77 -131 -98 -212 -98 -114 0 -195 49 -439 266 -152 136 -212 184 -225 184 -4
0 -5 -23 -2 -51z m419 -361 c54 -37 63 -48 66 -77 6 -65 -14 -61 -93 22 -41
43 -75 82 -75 87 0 21 41 8 102 -32z m3300 -1845 c25 -23 26 -103 1 -102 -21
1 -106 96 -98 110 10 15 77 10 97 -8z m-879 -389 c94 -48 198 -83 267 -90 66
-8 118 -37 126 -71 11 -43 -7 -58 -69 -58 -76 1 -193 61 -314 163 -123 103
-125 113 -10 56z"/>
<path d="M690 14464 c-64 -54 -87 -150 -75 -318 l7 -109 44 69 c113 177 156
304 120 359 -21 33 -56 32 -96 -1z"/>
<path d="M8696 14275 c-115 -24 -256 -56 -315 -71 -218 -54 -693 -203 -726
-228 -16 -11 -14 -14 19 -34 37 -22 46 -36 66 -110 8 -30 30 -63 76 -111 83
-88 175 -139 269 -148 l65 -6 0 27 c0 16 9 39 20 53 25 32 34 66 65 238 27
147 61 237 97 256 38 20 73 -6 114 -84 77 -150 98 -164 254 -177 111 -9 138
-17 177 -52 l21 -20 17 33 c10 18 23 66 31 108 13 77 19 326 8 355 -8 22 -20
20 -258 -29z"/>
<path d="M13543 14191 c-50 -13 -80 -37 -129 -104 -41 -55 -44 -62 -27 -68 10
-4 128 -15 263 -24 623 -41 909 -107 1089 -253 63 -51 97 -111 142 -251 78
-244 80 -267 89 -736 7 -432 11 -471 50 -513 25 -26 54 -28 106 -6 22 9 62 19
89 23 l50 6 23 70 c29 86 58 288 67 460 7 147 11 165 30 165 19 0 99 -120 270
-405 284 -473 537 -814 645 -870 28 -14 31 -14 37 0 10 26 -13 85 -68 176
-103 171 -119 220 -73 227 29 4 106 -74 183 -188 78 -113 138 -183 204 -237
56 -47 225 -139 235 -129 10 11 -37 198 -64 254 -40 82 -121 177 -380 447
-292 304 -393 412 -538 580 -113 131 -140 165 -276 350 -114 155 -269 335
-445 514 -189 193 -326 311 -410 351 -114 56 -387 115 -670 145 -179 19 -447
28 -492 16z"/>
<path d="M4767 14062 c-29 -32 -22 -52 18 -52 27 0 35 4 35 18 0 11 -8 26 -18
36 -18 15 -20 15 -35 -2z"/>
<path d="M7410 14004 c-25 -13 -110 -42 -190 -65 -153 -44 -214 -69 -223 -93
-10 -24 46 -98 134 -176 191 -171 307 -260 340 -260 27 0 34 65 34 295 0 199
-11 292 -38 313 -8 6 -28 1 -57 -14z"/>
<path d="M456 13968 c-42 -67 -85 -262 -92 -423 l-4 -110 61 125 c106 219 131
325 93 391 -25 42 -39 46 -58 17z"/>
<path d="M4750 13873 c-31 -39 -22 -105 30 -235 60 -152 158 -314 177 -295 7
8 -55 266 -102 423 -23 76 -56 134 -75 134 -5 0 -18 -12 -30 -27z"/>
<path d="M6515 13855 c-168 -30 -245 -65 -245 -109 0 -26 48 -108 128 -220 97
-135 122 -137 205 -18 62 88 103 127 163 152 65 28 93 96 63 152 -29 54 -159
72 -314 43z"/>
<path d="M5190 13821 c-80 -5 -159 -11 -177 -15 -30 -7 -31 -9 -22 -34 6 -15
47 -94 92 -176 95 -173 97 -172 69 42 -10 78 -16 142 -13 141 3 0 40 -39 81
-85 128 -146 141 -156 174 -150 74 15 147 106 154 191 4 47 2 55 -19 68 -32
21 -155 27 -339 18z"/>
<path d="M5788 13820 c-77 -12 -118 -34 -118 -64 0 -38 75 -164 193 -325 l39
-53 59 133 c102 228 109 280 41 298 -60 15 -153 20 -214 11z"/>
<path d="M20936 13788 c-24 -38 -39 -114 -34 -183 3 -54 9 -70 30 -91 25 -26
81 -36 107 -19 26 15 43 71 44 141 2 78 -11 108 -64 145 -43 31 -66 32 -83 7z"/>
<path d="M22946 13719 c-46 -40 -100 -149 -116 -232 -33 -175 71 -310 198
-258 46 19 57 58 56 196 -2 197 -41 325 -99 325 -3 0 -20 -14 -39 -31z"/>
<path d="M22560 13708 c-63 -102 -91 -305 -55 -391 11 -27 61 -49 124 -54 83
-8 86 -1 86 171 -1 173 -18 242 -69 281 -44 33 -62 32 -86 -7z"/>
<path d="M22156 13690 c-81 -75 -110 -198 -68 -292 21 -49 93 -118 121 -118
26 0 58 43 72 94 14 53 14 211 -1 268 -26 98 -57 110 -124 48z"/>
<path d="M20394 13465 c-9 -24 21 -48 114 -93 69 -33 73 -33 97 -18 30 20 47
50 39 69 -9 25 -84 49 -166 55 -68 4 -79 2 -84 -13z"/>
<path d="M5692 13155 c3 -130 15 -183 45 -192 15 -5 53 54 53 83 0 37 -29 118
-65 179 l-35 60 2 -130z"/>
<path d="M21677 13231 c-79 -11 -88 -23 -48 -60 41 -38 115 -61 171 -54 35 5
44 2 57 -17 15 -21 21 -22 112 -18 99 5 161 25 161 52 0 31 -66 73 -131 84
-91 16 -254 22 -322 13z"/>
<path d="M6079 13179 c-15 -15 -19 -28 -14 -47 20 -83 211 -269 346 -337 99
-51 155 -41 234 42 69 72 107 156 113 251 l4 77 -46 -62 c-54 -71 -109 -103
-177 -103 -61 1 -114 27 -190 95 -109 98 -221 133 -270 84z"/>
<path d="M22275 13165 c-43 -22 -63 -50 -58 -79 6 -30 74 -148 89 -153 5 -2
32 26 59 62 27 36 58 68 68 71 11 4 31 -5 53 -23 72 -58 118 -82 173 -94 104
-21 238 6 285 60 23 25 22 25 -54 4 -69 -19 -90 -11 -70 27 10 19 8 26 -11 46
-31 33 -103 52 -229 59 -58 4 -131 13 -163 21 -74 18 -105 18 -142 -1z"/>
<path d="M5400 13087 c0 -21 11 -49 28 -73 44 -60 172 -175 243 -217 81 -49
128 -48 209 5 62 40 147 122 156 151 10 32 -10 41 -46 20 -18 -10 -43 -24 -56
-31 -38 -21 -135 -35 -199 -28 -84 9 -152 45 -244 132 -43 41 -82 74 -85 74
-3 0 -6 -15 -6 -33z"/>
<path d="M23395 13111 c-12 -20 -10 -158 5 -240 l12 -75 30 65 c42 93 46 118
19 138 -13 10 -30 41 -40 71 -12 36 -20 49 -26 41z"/>
<path d="M23061 13071 c-28 -27 -61 -85 -61 -110 0 -21 45 -51 87 -57 63 -9
87 15 87 89 1 100 -51 136 -113 78z"/>
<path d="M12731 12922 c-87 -18 -119 -28 -105 -33 10 -4 34 -8 52 -8 68 -2
122 -47 122 -103 0 -49 -49 -105 -125 -143 -92 -47 -99 -60 -103 -181 -2 -57
1 -135 8 -173 13 -78 35 -107 73 -97 65 16 327 256 368 336 51 102 33 272 -38
351 -33 37 -101 81 -120 78 -4 -1 -64 -13 -132 -27z"/>
<path d="M22400 12728 c0 -32 3 -39 10 -28 13 20 13 70 0 70 -5 0 -10 -19 -10
-42z"/>
<path d="M23052 12548 c-23 -23 -13 -59 26 -99 48 -47 83 -57 127 -36 32 15
94 101 82 113 -3 3 -24 0 -48 -6 -41 -11 -44 -11 -62 14 -15 22 -27 26 -66 26
-26 0 -52 -5 -59 -12z"/>
<path d="M12317 12408 c-12 -45 -144 -155 -370 -307 -120 -80 -252 -167 -295
-192 -138 -83 -218 -173 -210 -237 4 -35 33 -39 141 -17 137 26 275 74 297
102 15 19 27 24 52 21 30 -3 33 0 36 25 3 25 6 28 32 22 24 -5 36 2 90 52 138
127 223 273 242 413 7 58 8 95 1 115 l-10 30 -6 -27z"/>
<path d="M18799 12391 c-21 -17 -24 -28 -24 -83 0 -86 26 -135 91 -170 46 -25
74 -32 117 -29 31 2 49 63 38 127 -15 82 -38 121 -86 149 -50 30 -104 32 -136
6z"/>
<path d="M19242 12100 c-32 -14 -112 -99 -112 -121 0 -42 165 -186 281 -245
71 -35 280 -88 328 -82 23 3 18 12 -79 133 -222 276 -323 352 -418 315z"/>
<path d="M10183 12053 c-10 -10 -30 -31 -43 -48 -19 -22 -13 -19 28 14 28 24
52 45 52 47 0 10 -19 3 -37 -13z"/>
<path d="M10337 12044 c-19 -19 -4 -54 38 -93 56 -51 219 -158 332 -217 124
-65 151 -59 109 25 -33 65 -151 154 -300 226 -112 54 -166 72 -179 59z"/>
<path d="M13023 11974 c-3 -8 -4 -83 -1 -165 3 -82 2 -149 -2 -149 -4 0 -59
24 -121 54 -63 30 -154 64 -204 77 -89 22 -236 32 -251 16 -19 -18 16 -42 77
-55 75 -15 243 -94 314 -149 86 -66 75 -104 -79 -271 -110 -121 -148 -214 -78
-198 74 18 323 164 426 250 87 72 129 206 107 338 -15 91 -41 140 -109 211
-60 61 -69 66 -79 41z"/>
<path d="M10139 11801 c34 -28 151 -96 151 -88 0 3 -24 22 -53 44 -85 65 -167
101 -98 44z"/>
<path d="M18683 11780 c-67 -40 -81 -96 -48 -195 43 -130 122 -175 228 -130
81 34 95 77 56 181 -35 93 -113 164 -181 164 -13 0 -37 -9 -55 -20z"/>
<path d="M17037 11713 c-12 -11 -8 -55 17 -183 23 -122 42 -180 57 -180 4 0
26 16 50 36 29 24 50 34 68 32 25 -3 26 -5 23 -58 -1 -30 0 -65 3 -78 8 -34
74 -59 190 -71 111 -12 262 -50 557 -141 l198 -60 112 56 c62 31 147 78 188
105 84 54 166 132 156 148 -4 6 -29 11 -55 11 -66 0 -365 76 -866 219 -591
168 -675 188 -698 164z"/>
<path d="M19166 11505 c30 -58 54 -117 54 -131 0 -26 -1 -27 -52 -21 -29 4
-64 9 -78 13 -20 5 -12 -7 40 -60 35 -36 73 -69 82 -72 12 -4 29 6 52 30 18
20 41 36 50 36 35 0 84 -30 137 -83 65 -66 112 -83 358 -127 212 -39 221 -38
138 8 -82 45 -146 95 -178 140 -76 106 -112 131 -259 182 -125 43 -229 91
-316 146 -40 24 -74 44 -77 44 -3 0 19 -47 49 -105z"/>
<path d="M10615 11471 c-16 -10 -65 -50 -108 -90 -84 -77 -148 -115 -214 -126
-91 -15 -221 -128 -271 -235 -78 -166 21 -382 216 -473 61 -29 76 -31 187 -34
99 -3 116 -1 95 9 -14 7 -62 29 -108 51 -255 119 -346 364 -205 555 40 53 78
82 110 82 27 0 70 -48 88 -100 26 -74 60 -123 133 -192 77 -73 171 -125 197
-111 14 8 14 11 -2 24 -10 9 -40 24 -66 33 -59 22 -124 71 -154 115 -70 104
-47 218 74 371 32 41 66 87 75 101 27 42 4 52 -47 20z"/>
<path d="M12357 11392 c-8 -9 -29 -46 -48 -82 -79 -150 -261 -277 -493 -344
-57 -17 -155 -32 -289 -46 -111 -11 -226 -27 -254 -35 -77 -23 -86 -41 -78
-162 7 -91 5 -100 -14 -125 -12 -15 -31 -29 -44 -31 -44 -9 272 -6 434 3 246
14 337 37 554 140 200 94 279 154 319 240 28 60 29 255 2 344 -28 96 -60 131
-89 98z"/>
<path d="M20461 11263 c37 -44 196 -92 213 -64 13 21 -22 41 -90 51 -40 5 -84
14 -98 20 -37 14 -41 13 -25 -7z"/>
<path d="M13078 11069 c-27 -15 -22 -35 19 -80 34 -38 37 -45 41 -118 8 -143
-49 -340 -108 -368 -34 -16 -50 -41 -50 -75 0 -37 -24 -84 -64 -126 l-31 -33
29 11 c67 25 206 103 271 152 88 67 106 107 113 259 5 123 -15 236 -51 290
-22 33 -92 82 -132 93 -11 3 -28 1 -37 -5z"/>
<path d="M18294 10791 c-259 -149 -714 -437 -730 -462 -4 -6 13 0 37 14 424
241 859 517 816 517 -2 0 -57 -31 -123 -69z"/>
<path d="M10643 10558 c20 -7 35 -7 50 0 18 9 14 11 -28 11 -46 -1 -48 -1 -22
-11z"/>
<path d="M4820 10180 c-525 -13 -643 -47 -726 -212 -31 -61 -35 -137 -9 -191
35 -74 157 -159 251 -174 33 -5 36 -4 30 14 -12 38 16 46 191 55 179 8 350 28
508 58 163 32 266 41 530 47 374 9 2391 -26 2513 -43 31 -5 42 -11 40 -22 -4
-25 -5 -25 567 -67 865 -64 1423 -244 1593 -513 42 -66 47 -99 23 -161 -51
-136 -193 -316 -242 -309 -16 2 -25 11 -27 24 -4 28 -24 33 -147 40 -94 5 -98
4 -68 -10 44 -20 48 -47 24 -165 -42 -203 -50 -408 -18 -478 10 -23 15 -25 59
-20 171 21 466 234 548 397 45 90 43 129 -19 323 -56 175 -62 217 -31 217 10
0 34 -13 52 -29 82 -71 295 -187 366 -198 32 -5 35 -4 25 8 -7 9 -44 33 -83
54 -38 21 -70 43 -70 48 0 5 48 8 118 5 107 -3 121 -6 171 -33 60 -33 108 -86
216 -240 104 -146 147 -188 221 -208 98 -28 222 -18 304 23 19 10 82 70 139
134 122 137 201 200 280 222 74 21 189 79 282 141 84 56 132 78 154 69 21 -8
19 -33 -7 -75 l-22 -36 30 22 c41 29 154 150 191 204 17 24 53 83 81 130 63
107 132 183 191 213 48 25 89 62 78 72 -18 18 -173 -79 -292 -182 -41 -37 -78
-64 -81 -61 -3 3 14 40 37 83 93 163 234 246 531 314 207 47 225 60 362 275
58 91 106 167 106 170 0 9 -336 5 -445 -6 -306 -31 -481 -131 -678 -386 -68
-88 -113 -170 -142 -258 -24 -72 -26 -90 -23 -209 l3 -131 -24 -3 c-32 -5
-194 161 -279 285 -34 50 -74 101 -88 112 -42 33 -113 49 -303 71 -310 34
-424 43 -511 38 -152 -9 -207 -49 -357 -260 -90 -126 -141 -178 -177 -178 -28
0 -46 35 -46 89 0 159 -204 463 -366 543 -201 101 -564 154 -1539 223 -269 20
-663 49 -875 65 -212 16 -497 34 -635 40 -641 26 -1974 42 -2485 30z m4838
-546 c128 -19 217 -45 217 -64 0 -37 -289 -16 -444 32 -73 22 -87 31 -76 48 9
14 142 7 303 -16z"/>
<path d="M12295 10168 c-16 -6 -97 -37 -180 -68 -197 -76 -266 -90 -535 -104
-124 -6 -231 -15 -237 -19 -17 -11 -16 -34 3 -90 21 -61 68 -102 134 -116 79
-17 400 -14 511 5 315 54 470 206 394 387 -8 19 -43 21 -90 5z"/>
<path d="M23025 10104 c-118 -13 -355 -48 -465 -70 -226 -46 -515 -122 -574
-151 -28 -15 -29 -16 -23 -76 7 -73 38 -179 67 -226 26 -41 4 -43 385 44 454
104 576 120 975 130 225 6 388 18 433 31 31 10 40 41 21 79 -40 85 -201 190
-339 221 -69 15 -391 27 -480 18z"/>
<path d="M10740 9990 c161 -99 196 -112 216 -85 16 22 18 73 4 109 -13 34 -57
45 -220 52 l-135 6 135 -82z"/>
<path d="M17110 9688 c0 -31 3 -39 10 -28 13 20 13 57 0 65 -6 4 -10 -11 -10
-37z"/>
<path d="M6622 9505 c-68 -70 -112 -124 -110 -134 6 -30 130 -41 179 -15 40
20 59 69 58 146 -3 137 1 136 -127 3z"/>
<path d="M13235 9568 c-9 -23 0 -47 20 -55 31 -11 37 13 11 43 -22 26 -25 27
-31 12z"/>
<path d="M24300 9530 c-139 -13 -265 -53 -300 -95 -19 -23 -111 -68 -195 -95
-106 -34 -199 -87 -264 -149 -97 -93 -126 -180 -71 -209 39 -21 323 -10 421
16 143 38 232 97 282 187 12 22 30 41 40 43 10 2 35 -12 57 -32 56 -50 101
-60 280 -61 190 0 277 21 329 80 47 54 40 94 -31 171 -88 95 -162 128 -323
144 -110 10 -104 10 -225 0z"/>
<path d="M3385 9361 c-385 -60 -522 -133 -684 -365 -50 -72 -52 -97 -8 -130
62 -47 135 -61 322 -61 198 0 202 1 305 100 96 92 194 135 307 135 73 0 103
-20 103 -70 0 -36 11 -37 51 -8 41 31 153 37 235 13 107 -31 293 -136 362
-205 19 -19 32 -43 32 -57 0 -22 3 -24 23 -18 12 4 35 9 51 12 28 6 28 5 21
-34 -6 -37 -4 -42 30 -71 19 -18 53 -41 75 -52 65 -33 210 -71 297 -77 l82 -6
30 32 c32 34 61 108 61 155 0 48 -52 146 -106 199 -66 66 -206 157 -339 221
-134 65 -221 97 -388 142 -115 30 -178 52 -377 132 -58 23 -81 26 -215 28
-110 2 -182 -2 -270 -15z"/>
<path d="M6198 9136 c-162 -57 -260 -145 -396 -356 -30 -47 -104 -160 -164
-252 -179 -275 -239 -430 -241 -618 -2 -218 75 -381 284 -607 88 -94 90 -98
67 -107 -240 -99 -346 -180 -733 -555 -110 -107 -261 -249 -336 -317 -134
-121 -188 -179 -241 -258 -37 -54 -39 -138 -4 -211 29 -64 48 -79 87 -71 l31
6 -7 -38 c-5 -31 -2 -41 14 -56 19 -17 21 -17 27 -2 3 9 1 44 -5 79 -18 102
-15 124 22 168 19 21 66 101 106 176 104 202 129 243 148 243 14 0 15 -12 10
-97 -12 -208 -84 -487 -163 -629 -29 -53 -50 -102 -47 -108 4 -6 84 -101 179
-211 393 -458 575 -584 988 -685 134 -33 385 -74 556 -90 306 -29 764 -23
1095 16 617 71 967 147 1553 338 320 105 675 212 762 230 40 8 78 20 84 26 19
19 -8 45 -52 51 -23 3 -45 9 -49 13 -12 12 12 40 53 61 34 17 59 20 194 20
l155 0 63 -34 c76 -42 252 -219 332 -336 36 -53 63 -81 77 -83 12 -2 65 11
118 27 131 43 193 42 278 -3 89 -46 141 -90 183 -154 20 -29 42 -56 50 -59 8
-3 49 17 92 45 91 59 223 134 273 155 87 36 136 105 213 298 63 159 350 968
391 1104 80 264 70 302 -88 345 -79 21 -138 -4 -358 -151 -244 -164 -312 -175
-454 -73 -33 23 -96 74 -140 113 -108 96 -129 105 -229 98 -100 -7 -192 -35
-274 -84 -61 -37 -93 -64 -332 -273 -183 -161 -348 -264 -472 -296 -50 -13
-72 -14 -118 -5 -69 14 -84 9 -101 -31 -65 -158 -960 -495 -1518 -573 -541
-74 -1360 -83 -1811 -19 -251 36 -616 172 -820 305 -93 61 -229 201 -273 280
-73 130 -97 327 -62 494 20 94 88 231 166 335 64 87 424 450 446 450 6 0 89
-38 185 -85 267 -132 530 -208 868 -250 182 -23 451 -30 609 -16 371 33 1730
320 2107 446 140 46 273 75 349 75 23 0 76 -9 117 -19 199 -51 377 -188 513
-396 40 -60 85 -121 99 -135 40 -37 98 -32 221 17 55 22 115 44 133 48 46 10
99 -19 208 -113 171 -147 255 -198 310 -189 79 13 366 170 522 286 51 38 98
83 124 121 24 33 48 60 53 60 6 0 37 -27 70 -61 55 -55 138 -119 156 -119 23
0 120 216 310 695 87 219 156 402 151 406 -103 96 -197 153 -251 151 -46 -2
-65 17 -111 108 -167 328 -324 378 -570 181 -152 -122 -337 -191 -514 -191
-102 0 -178 44 -416 243 -63 53 -135 108 -161 122 l-47 25 -63 -47 c-35 -26
-142 -126 -237 -221 -188 -188 -246 -231 -380 -285 -167 -67 -827 -248 -1122
-307 -519 -104 -987 -146 -1530 -137 -507 9 -760 52 -1004 173 -182 90 -364
234 -440 348 -65 97 -118 337 -119 536 -1 99 2 122 22 167 30 67 124 158 263
251 58 40 112 79 118 87 20 24 -74 19 -152 -9z"/>
<path d="M17119 9101 c31 -57 381 -305 381 -270 0 40 -290 266 -364 285 -26 6
-27 5 -17 -15z"/>
<path d="M22991 9071 c-27 -37 -75 -67 -123 -75 -21 -4 -38 -11 -38 -15 0 -5
17 -28 38 -52 59 -66 65 -83 49 -121 -36 -86 -254 -246 -421 -308 -115 -43
-194 -81 -213 -102 -15 -17 -15 -27 9 -141 31 -148 40 -171 72 -192 21 -14 33
-15 76 -6 131 28 341 137 481 248 95 76 242 232 267 284 44 90 39 234 -11 343
-28 61 -121 166 -147 166 -10 0 -28 -13 -39 -29z"/>
<path d="M23539 8854 c-29 -35 -17 -136 48 -409 45 -185 51 -333 18 -400 -26
-53 -160 -186 -265 -264 -176 -130 -356 -227 -550 -296 -121 -43 -270 -111
-270 -125 0 -5 21 -64 47 -132 33 -88 48 -142 51 -190 l4 -68 50 0 c150 0 500
116 647 215 80 53 238 178 419 332 74 62 137 113 140 113 15 0 194 -369 208
-430 32 -127 -1 -232 -108 -346 -108 -115 -148 -111 -393 47 -92 59 -172 99
-160 79 4 -6 68 -51 143 -100 202 -131 242 -162 242 -181 0 -51 -250 -189
-423 -234 -99 -25 -175 -59 -264 -115 -69 -44 -162 -69 -291 -79 -165 -11
-187 -44 -71 -104 73 -37 192 -66 317 -76 87 -8 108 -13 128 -32 13 -12 24
-31 24 -41 0 -33 -29 -76 -68 -104 l-37 -26 45 7 c268 38 524 133 738 275 124
82 278 232 349 337 119 180 150 334 98 500 -56 181 -185 418 -317 581 -125
154 -161 249 -288 742 -92 357 -150 525 -186 537 -6 2 -17 -4 -25 -13z"/>
<path d="M12761 8834 c-28 -36 -61 -145 -61 -204 0 -111 61 -230 153 -299 162
-121 222 -94 326 146 40 91 81 213 81 239 0 10 -12 14 -38 14 -51 0 -102 16
-249 78 -140 60 -181 65 -212 26z"/>
<path d="M3731 8809 c-29 -5 -155 -34 -280 -64 -124 -30 -303 -70 -398 -89
-160 -32 -223 -52 -238 -76 -49 -79 1251 -2340 1345 -2340 21 0 51 183 85 515
41 389 81 596 129 670 10 15 31 31 47 37 88 31 153 323 119 535 -57 354 -314
715 -574 805 -55 19 -146 22 -235 7z"/>
<path d="M16105 8657 c-27 -7 -72 -24 -100 -38 -70 -34 -196 -156 -233 -226
-65 -124 -54 -181 61 -300 44 -46 84 -83 89 -83 6 0 51 24 102 54 173 102 336
282 361 399 7 35 29 34 79 -3 22 -17 41 -28 43 -26 10 10 -34 74 -83 123 -90
90 -209 127 -319 100z"/>
<path d="M23130 8186 c56 -53 225 -195 228 -191 9 9 -49 93 -85 125 -47 42
-183 105 -143 66z"/>
<path d="M17530 8121 c-16 -11 -27 3 104 -145 97 -111 203 -263 240 -348 106
-240 22 -440 -281 -667 -212 -159 -326 -201 -813 -300 -386 -78 -497 -108
-584 -154 -72 -39 -278 -232 -296 -279 -7 -18 -37 -65 -67 -104 -62 -84 -66
-107 -20 -131 65 -34 445 -28 807 13 616 70 1113 221 1441 439 124 83 254 218
302 314 48 96 60 163 55 296 -8 162 -42 243 -192 455 -107 151 -248 323 -351
426 -85 85 -114 107 -185 142 -94 45 -137 57 -160 43z"/>
<path d="M23138 8085 c6 -11 43 -51 83 -90 64 -62 68 -64 32 -20 -51 62 -129
137 -115 110z"/>
<path d="M9679 6944 c-21 -25 -2 -111 47 -218 81 -177 82 -184 58 -577 -6 -93
-4 -107 11 -123 26 -26 62 -15 180 50 188 105 243 160 271 271 21 79 57 137
94 153 57 24 59 68 6 113 -40 33 -136 77 -203 93 -85 19 -158 58 -248 130
-128 103 -193 135 -216 108z"/>
<path d="M18286 6401 c-3 -5 46 -83 109 -175 117 -168 174 -269 194 -341 26
-95 3 -244 -58 -379 -43 -96 -65 -122 -124 -149 -29 -13 -123 -71 -208 -128
-248 -168 -405 -240 -672 -309 -303 -78 -576 -118 -872 -127 -230 -6 -389 3
-775 43 -276 29 -425 35 -455 17 -11 -6 -38 -35 -60 -65 -30 -39 -58 -62 -105
-85 -35 -18 -81 -50 -103 -70 -99 -96 -217 -265 -217 -310 0 -54 131 -111 410
-177 182 -44 489 -100 640 -117 168 -19 617 -17 810 4 608 67 1172 229 1675
480 184 91 261 142 334 223 70 76 224 310 252 382 84 214 -81 682 -359 1016
-87 104 -177 177 -286 232 -87 43 -120 52 -130 35z"/>
<path d="M10063 4975 c-13 -9 -27 -39 -38 -82 -10 -38 -26 -84 -36 -104 -20
-41 -96 -112 -149 -139 -84 -43 -270 -188 -455 -355 -143 -129 -222 -196 -287
-243 -278 -203 -962 -514 -1623 -739 -175 -59 -285 -101 -285 -109 0 -64 749
-519 931 -566 81 -20 178 24 504 232 55 35 183 107 285 160 187 97 208 110
341 212 41 31 126 89 189 128 144 91 244 168 388 302 132 124 197 160 281 160
166 0 292 -144 513 -586 80 -161 155 -288 193 -328 23 -25 32 -28 96 -28 77 0
171 21 228 50 52 26 72 70 139 305 33 116 115 388 182 605 156 510 221 760
196 760 -17 0 -98 -44 -187 -101 -59 -37 -122 -76 -142 -85 -34 -16 -36 -16
-69 4 -18 11 -76 57 -128 101 -52 45 -113 90 -136 101 -50 25 -134 26 -201 4
-92 -31 -135 -67 -235 -202 -124 -166 -224 -272 -367 -385 -157 -125 -191
-151 -196 -145 -2 2 27 40 66 84 142 159 296 381 362 522 46 100 38 192 -31
329 -41 80 -82 119 -144 138 -66 19 -157 20 -185 0z"/>
<path d="M18760 4448 c-6 -18 -16 -127 -20 -243 -12 -298 -48 -455 -147 -648
-38 -75 -65 -110 -143 -188 -187 -189 -538 -423 -725 -484 -295 -96 -878 -151
-1180 -111 -607 81 -1272 319 -1847 662 -170 102 -272 154 -301 154 -23 0 -33
-28 -45 -135 -12 -115 -40 -186 -109 -282 -75 -105 -96 -147 -88 -175 14 -43
77 -119 144 -172 373 -298 1781 -1055 1781 -957 0 18 -88 86 -166 130 -92 51
-144 88 -144 103 0 16 65 5 305 -52 322 -76 318 -75 710 -74 687 2 1079 66
1505 246 133 56 492 239 567 288 84 56 149 129 210 241 148 271 211 542 170
734 -26 124 -165 467 -313 774 -105 219 -139 257 -164 189z"/>
<path d="M17297 3652 c-34 -38 -19 -60 93 -132 80 -51 254 -136 297 -145 24
-5 39 -1 62 16 26 19 38 21 101 17 l72 -5 -68 38 c-87 49 -201 86 -217 70 -20
-20 -40 -13 -33 13 8 32 -42 77 -120 106 -56 20 -68 21 -106 5 -11 -4 -23 1
-35 14 -21 26 -26 26 -46 3z"/>
<path d="M10159 3146 c-144 -50 -586 -329 -674 -425 -85 -93 -122 -119 -321
-234 -73 -41 -159 -93 -192 -115 -58 -40 -112 -94 -112 -113 0 -19 40 -48 82
-59 95 -26 142 -10 208 72 74 91 153 169 192 189 63 33 128 26 215 -22 88 -49
107 -48 221 6 93 44 149 85 232 169 106 108 131 158 170 345 39 187 37 207
-21 187z"/>
<path d="M10746 2635 c-54 -114 -72 -292 -42 -418 15 -62 34 -90 79 -114 40
-20 46 -8 18 39 -34 59 -42 142 -30 293 6 72 9 159 7 195 l-3 65 -29 -60z"/>
</g>
</svg>
